<?xml version="1.0" encoding="utf-8" standalone="no"?>
<!DOCTYPE svg PUBLIC "-//W3C//DTD SVG 1.1//EN"
  "http://www.w3.org/Graphics/SVG/1.1/DTD/svg11.dtd">
<svg xmlns:xlink="http://www.w3.org/1999/xlink" width="460.8pt" height="345.6pt" viewBox="0 0 460.8 345.6" xmlns="http://www.w3.org/2000/svg" version="1.1">
 <metadata>
  <rdf:RDF xmlns:dc="http://purl.org/dc/elements/1.1/" xmlns:cc="http://creativecommons.org/ns#" xmlns:rdf="http://www.w3.org/1999/02/22-rdf-syntax-ns#">
   <cc:Work>
    <dc:type rdf:resource="http://purl.org/dc/dcmitype/StillImage"/>
    <dc:date>2023-12-05T13:36:33.875017</dc:date>
    <dc:format>image/svg+xml</dc:format>
    <dc:creator>
     <cc:Agent>
      <dc:title>Matplotlib v3.6.2, https://matplotlib.org/</dc:title>
     </cc:Agent>
    </dc:creator>
   </cc:Work>
  </rdf:RDF>
 </metadata>
 <defs>
  <style type="text/css">*{stroke-linejoin: round; stroke-linecap: butt}</style>
 </defs>
 <g id="figure_1">
  <g id="patch_1">
   <path d="M 0 345.6 
L 460.8 345.6 
L 460.8 0 
L 0 0 
z
" style="fill: #ffffff"/>
  </g>
  <g id="axes_1">
   <g id="patch_2">
    <path d="M 57.6 307.584 
L 414.72 307.584 
L 414.72 41.472 
L 57.6 41.472 
z
" style="fill: #ffffff"/>
   </g>
   <g id="PolyCollection_1">
    <path d="M 73.832727 61.269436 
L 73.832727 61.797309 
L 76.011617 61.254505 
L 78.190506 61.137395 
L 80.369396 61.413774 
L 82.548286 61.639796 
L 84.727175 62.16884 
L 86.906065 62.990073 
L 89.084954 64.147118 
L 91.263844 65.533699 
L 93.442733 66.888952 
L 95.621623 68.050096 
L 97.800513 68.929299 
L 99.979402 69.627566 
L 102.158292 70.189108 
L 104.337181 70.762068 
L 106.516071 71.47673 
L 108.69496 72.592202 
L 110.87385 74.486161 
L 113.052739 77.474511 
L 115.231629 82.001978 
L 117.410519 87.732748 
L 119.589408 94.90397 
L 121.768298 102.799808 
L 123.947187 110.946847 
L 126.126077 118.30281 
L 128.304966 126.587453 
L 130.483856 135.262072 
L 132.662746 144.137534 
L 134.841635 153.363155 
L 137.020525 162.116824 
L 139.199414 171.397779 
L 141.378304 180.562971 
L 143.557193 189.044476 
L 145.736083 197.12447 
L 147.914973 204.467199 
L 150.093862 211.723617 
L 152.272752 218.190833 
L 154.451641 224.229046 
L 156.630531 229.475186 
L 158.80942 234.696207 
L 160.98831 239.230349 
L 163.1672 243.045905 
L 165.346089 246.298748 
L 167.524979 249.227489 
L 169.703868 251.769798 
L 171.882758 253.96224 
L 174.061647 255.888902 
L 176.240537 257.724131 
L 178.419426 259.151114 
L 180.598316 260.353247 
L 182.777206 261.468777 
L 184.956095 262.436631 
L 187.134985 263.440379 
L 189.313874 264.391809 
L 191.492764 265.28445 
L 193.671653 266.301666 
L 195.850543 267.446268 
L 198.029433 268.532228 
L 200.208322 269.540807 
L 202.387212 270.5849 
L 204.566101 271.657714 
L 206.744991 272.608968 
L 208.92388 273.562681 
L 211.10277 274.473591 
L 213.28166 275.418228 
L 215.460549 276.32299 
L 217.639439 277.134092 
L 219.818328 277.936558 
L 221.997218 278.712616 
L 224.176107 279.390096 
L 226.354997 280.125605 
L 228.533887 280.758876 
L 230.712776 281.435273 
L 232.891666 282.060464 
L 235.070555 282.64938 
L 237.249445 283.24503 
L 239.428334 283.807626 
L 241.607224 284.391272 
L 243.786113 284.942907 
L 245.965003 285.407698 
L 248.143893 285.843581 
L 250.322782 286.200142 
L 252.501672 286.639187 
L 254.680561 287.057559 
L 256.859451 287.420412 
L 259.03834 287.787341 
L 261.21723 288.224137 
L 263.39612 288.624814 
L 265.575009 288.986224 
L 267.753899 289.359377 
L 269.932788 289.686008 
L 272.111678 290.035709 
L 274.290567 290.328955 
L 276.469457 290.664021 
L 278.648347 290.962654 
L 280.827236 291.240237 
L 283.006126 291.477911 
L 285.185015 291.711519 
L 287.363905 291.932982 
L 289.542794 292.135117 
L 291.721684 292.366087 
L 293.900574 292.564614 
L 296.079463 292.736763 
L 298.258353 292.873243 
L 300.437242 293.035414 
L 302.616132 293.20948 
L 304.795021 293.36405 
L 306.973911 293.523996 
L 309.1528 293.647746 
L 311.33169 293.758986 
L 313.51058 293.887637 
L 315.689469 294.009314 
L 317.868359 294.118688 
L 320.047248 294.216405 
L 322.226138 294.299544 
L 324.405027 294.384967 
L 326.583917 294.485415 
L 328.762807 294.522158 
L 330.941696 294.563398 
L 333.120586 294.650596 
L 335.299475 294.699656 
L 337.478365 294.729817 
L 339.657254 294.780535 
L 341.836144 294.829911 
L 344.015034 294.877686 
L 346.193923 294.91476 
L 348.372813 294.955615 
L 350.551702 294.991373 
L 352.730592 295.037344 
L 354.909481 295.083991 
L 357.088371 295.104392 
L 359.267261 295.129382 
L 361.44615 295.176453 
L 363.62504 295.216454 
L 365.803929 295.230597 
L 367.982819 295.249963 
L 370.161708 295.27554 
L 372.340598 295.300139 
L 374.519487 295.337067 
L 376.698377 295.357517 
L 378.877267 295.367464 
L 381.056156 295.361189 
L 383.235046 295.39681 
L 385.413935 295.445424 
L 387.592825 295.464507 
L 389.771714 295.468942 
L 391.950604 295.465212 
L 394.129494 295.480555 
L 396.308383 295.487737 
L 398.487273 295.488 
L 398.487273 294.869453 
L 398.487273 294.869453 
L 396.308383 294.86007 
L 394.129494 294.85249 
L 391.950604 294.834581 
L 389.771714 294.807043 
L 387.592825 294.807163 
L 385.413935 294.78608 
L 383.235046 294.761897 
L 381.056156 294.743783 
L 378.877267 294.765483 
L 376.698377 294.758132 
L 374.519487 294.77843 
L 372.340598 294.752733 
L 370.161708 294.733492 
L 367.982819 294.721295 
L 365.803929 294.679943 
L 363.62504 294.636211 
L 361.44615 294.62092 
L 359.267261 294.590401 
L 357.088371 294.530883 
L 354.909481 294.521145 
L 352.730592 294.497111 
L 350.551702 294.454068 
L 348.372813 294.394869 
L 346.193923 294.35393 
L 344.015034 294.285447 
L 341.836144 294.244977 
L 339.657254 294.195659 
L 337.478365 294.109853 
L 335.299475 294.012965 
L 333.120586 293.94132 
L 330.941696 293.893202 
L 328.762807 293.786316 
L 326.583917 293.684691 
L 324.405027 293.600597 
L 322.226138 293.471935 
L 320.047248 293.361614 
L 317.868359 293.238467 
L 315.689469 293.162574 
L 313.51058 293.051285 
L 311.33169 292.914234 
L 309.1528 292.800684 
L 306.973911 292.660926 
L 304.795021 292.503507 
L 302.616132 292.310545 
L 300.437242 292.135539 
L 298.258353 291.931223 
L 296.079463 291.695375 
L 293.900574 291.471312 
L 291.721684 291.23485 
L 289.542794 291.034396 
L 287.363905 290.792795 
L 285.185015 290.569089 
L 283.006126 290.244976 
L 280.827236 289.920359 
L 278.648347 289.596184 
L 276.469457 289.241658 
L 274.290567 288.920279 
L 272.111678 288.546877 
L 269.932788 288.216039 
L 267.753899 287.790424 
L 265.575009 287.404424 
L 263.39612 286.983812 
L 261.21723 286.51205 
L 259.03834 286.081334 
L 256.859451 285.548244 
L 254.680561 285.021367 
L 252.501672 284.448639 
L 250.322782 283.859535 
L 248.143893 283.239409 
L 245.965003 282.627715 
L 243.786113 282.034466 
L 241.607224 281.398852 
L 239.428334 280.790584 
L 237.249445 280.122296 
L 235.070555 279.416534 
L 232.891666 278.749506 
L 230.712776 278.013675 
L 228.533887 277.256911 
L 226.354997 276.517626 
L 224.176107 275.765927 
L 221.997218 275.011886 
L 219.818328 274.231642 
L 217.639439 273.397468 
L 215.460549 272.55741 
L 213.28166 271.680433 
L 211.10277 270.75509 
L 208.92388 269.758221 
L 206.744991 268.745163 
L 204.566101 267.743903 
L 202.387212 266.686313 
L 200.208322 265.588379 
L 198.029433 264.738191 
L 195.850543 263.862736 
L 193.671653 263.019662 
L 191.492764 262.164321 
L 189.313874 261.24495 
L 187.134985 260.295717 
L 184.956095 259.292056 
L 182.777206 258.210254 
L 180.598316 257.115687 
L 178.419426 255.921664 
L 176.240537 254.396542 
L 174.061647 252.71262 
L 171.882758 250.632808 
L 169.703868 248.407984 
L 167.524979 245.743911 
L 165.346089 242.820234 
L 163.1672 239.252717 
L 160.98831 235.202561 
L 158.80942 230.695471 
L 156.630531 225.642181 
L 154.451641 219.738498 
L 152.272752 213.410819 
L 150.093862 206.383204 
L 147.914973 198.583278 
L 145.736083 190.245467 
L 143.557193 181.38438 
L 141.378304 172.292498 
L 139.199414 163.058972 
L 137.020525 154.100362 
L 134.841635 145.233097 
L 132.662746 136.196901 
L 130.483856 127.616556 
L 128.304966 118.115141 
L 126.126077 109.773992 
L 123.947187 101.724447 
L 121.768298 93.535248 
L 119.589408 85.914325 
L 117.410519 80.163353 
L 115.231629 75.552739 
L 113.052739 72.589567 
L 110.87385 70.968474 
L 108.69496 70.324077 
L 106.516071 70.101275 
L 104.337181 69.790056 
L 102.158292 69.427601 
L 99.979402 68.828584 
L 97.800513 67.899025 
L 95.621623 66.747542 
L 93.442733 65.390825 
L 91.263844 64.156487 
L 89.084954 63.048628 
L 86.906065 62.285071 
L 84.727175 61.481112 
L 82.548286 60.921913 
L 80.369396 60.386135 
L 78.190506 60.052958 
L 76.011617 60.178558 
L 73.832727 61.269436 
z
" clip-path="url(#pc84df18364)" style="fill: #1f77b4; fill-opacity: 0.2"/>
   </g>
   <g id="PolyCollection_2">
    <path d="M 73.832727 58.436549 
L 73.832727 60.232429 
L 76.011617 56.404986 
L 78.190506 56.149687 
L 80.369396 58.625096 
L 82.548286 61.888362 
L 84.727175 64.337129 
L 86.906065 65.343102 
L 89.084954 65.577615 
L 91.263844 65.658128 
L 93.442733 65.783142 
L 95.621623 66.467942 
L 97.800513 67.979245 
L 99.979402 69.897797 
L 102.158292 73.254165 
L 104.337181 78.883635 
L 106.516071 86.02353 
L 108.69496 94.143634 
L 110.87385 102.083096 
L 113.052739 110.098972 
L 115.231629 118.70274 
L 117.410519 128.057474 
L 119.589408 137.234495 
L 121.768298 146.371405 
L 123.947187 155.215833 
L 126.126077 163.898357 
L 128.304966 171.269836 
L 130.483856 177.704144 
L 132.662746 183.415386 
L 134.841635 188.475293 
L 137.020525 193.322967 
L 139.199414 197.835854 
L 141.378304 202.345754 
L 143.557193 206.097075 
L 145.736083 209.125126 
L 147.914973 211.676598 
L 150.093862 213.420539 
L 152.272752 214.97731 
L 154.451641 216.206875 
L 156.630531 216.980444 
L 158.80942 218.21083 
L 160.98831 220.132192 
L 163.1672 222.138928 
L 165.346089 224.626048 
L 167.524979 226.928809 
L 169.703868 229.759207 
L 171.882758 232.538312 
L 174.061647 235.202326 
L 176.240537 237.878579 
L 178.419426 240.859493 
L 180.598316 243.576969 
L 182.777206 246.251523 
L 184.956095 248.651953 
L 187.134985 251.063596 
L 189.313874 253.235047 
L 191.492764 255.094576 
L 193.671653 256.951645 
L 195.850543 258.519248 
L 198.029433 260.063488 
L 200.208322 261.458559 
L 202.387212 262.822274 
L 204.566101 263.828833 
L 206.744991 264.73336 
L 208.92388 265.539486 
L 211.10277 266.457685 
L 213.28166 267.320521 
L 215.460549 268.129048 
L 217.639439 269.004122 
L 219.818328 269.743758 
L 221.997218 270.439362 
L 224.176107 271.348807 
L 226.354997 272.01771 
L 228.533887 272.77096 
L 230.712776 273.47643 
L 232.891666 274.135583 
L 235.070555 274.896914 
L 237.249445 275.487762 
L 239.428334 276.013497 
L 241.607224 276.661613 
L 243.786113 277.470812 
L 245.965003 278.129643 
L 248.143893 278.729568 
L 250.322782 279.387901 
L 252.501672 280.071032 
L 254.680561 280.756153 
L 256.859451 281.361377 
L 259.03834 281.941598 
L 261.21723 282.501968 
L 263.39612 283.019565 
L 265.575009 283.587255 
L 267.753899 284.11908 
L 269.932788 284.692318 
L 272.111678 285.216054 
L 274.290567 285.757242 
L 276.469457 286.189386 
L 278.648347 286.632734 
L 280.827236 287.138002 
L 283.006126 287.524133 
L 285.185015 287.964894 
L 287.363905 288.370961 
L 289.542794 288.717328 
L 291.721684 289.048713 
L 293.900574 289.322964 
L 296.079463 289.613883 
L 298.258353 289.88996 
L 300.437242 290.171475 
L 302.616132 290.501566 
L 304.795021 290.847808 
L 306.973911 291.046358 
L 309.1528 291.271089 
L 311.33169 291.53444 
L 313.51058 291.775836 
L 315.689469 291.993294 
L 317.868359 292.128377 
L 320.047248 292.332544 
L 322.226138 292.53678 
L 324.405027 292.706215 
L 326.583917 292.891275 
L 328.762807 293.047464 
L 330.941696 293.17964 
L 333.120586 293.318928 
L 335.299475 293.502925 
L 337.478365 293.621949 
L 339.657254 293.726186 
L 341.836144 293.816633 
L 344.015034 293.893363 
L 346.193923 293.969754 
L 348.372813 294.069801 
L 350.551702 294.165289 
L 352.730592 294.267336 
L 354.909481 294.385828 
L 357.088371 294.443405 
L 359.267261 294.491947 
L 361.44615 294.558723 
L 363.62504 294.623095 
L 365.803929 294.666306 
L 367.982819 294.72032 
L 370.161708 294.797972 
L 372.340598 294.841297 
L 374.519487 294.894866 
L 376.698377 294.911012 
L 378.877267 294.988701 
L 381.056156 295.031717 
L 383.235046 295.107207 
L 385.413935 295.138562 
L 387.592825 295.166358 
L 389.771714 295.24404 
L 391.950604 295.289009 
L 394.129494 295.326183 
L 396.308383 295.352094 
L 398.487273 295.416435 
L 398.487273 294.792796 
L 398.487273 294.792796 
L 396.308383 294.744172 
L 394.129494 294.691812 
L 391.950604 294.643273 
L 389.771714 294.57044 
L 387.592825 294.519295 
L 385.413935 294.449184 
L 383.235046 294.413659 
L 381.056156 294.387909 
L 378.877267 294.337022 
L 376.698377 294.270024 
L 374.519487 294.153095 
L 372.340598 294.113738 
L 370.161708 294.096935 
L 367.982819 294.055048 
L 365.803929 293.973461 
L 363.62504 293.874678 
L 361.44615 293.778127 
L 359.267261 293.67986 
L 357.088371 293.571379 
L 354.909481 293.530091 
L 352.730592 293.471504 
L 350.551702 293.351537 
L 348.372813 293.17786 
L 346.193923 293.024637 
L 344.015034 292.929681 
L 341.836144 292.808496 
L 339.657254 292.668055 
L 337.478365 292.49407 
L 335.299475 292.319483 
L 333.120586 292.115103 
L 330.941696 291.960386 
L 328.762807 291.749524 
L 326.583917 291.545946 
L 324.405027 291.380423 
L 322.226138 291.139402 
L 320.047248 290.949072 
L 317.868359 290.721203 
L 315.689469 290.508561 
L 313.51058 290.204347 
L 311.33169 289.957626 
L 309.1528 289.650228 
L 306.973911 289.361959 
L 304.795021 289.050608 
L 302.616132 288.736446 
L 300.437242 288.424044 
L 298.258353 288.053772 
L 296.079463 287.717713 
L 293.900574 287.344361 
L 291.721684 286.939588 
L 289.542794 286.526762 
L 287.363905 286.102587 
L 285.185015 285.705725 
L 283.006126 285.285119 
L 280.827236 284.848065 
L 278.648347 284.269712 
L 276.469457 283.803293 
L 274.290567 283.287512 
L 272.111678 282.762362 
L 269.932788 282.178423 
L 267.753899 281.534612 
L 265.575009 280.862284 
L 263.39612 280.386701 
L 261.21723 279.758612 
L 259.03834 278.933983 
L 256.859451 278.257351 
L 254.680561 277.451431 
L 252.501672 276.896067 
L 250.322782 276.12806 
L 248.143893 275.301704 
L 245.965003 274.453272 
L 243.786113 273.779627 
L 241.607224 273.050121 
L 239.428334 272.085253 
L 237.249445 271.135726 
L 235.070555 270.290632 
L 232.891666 269.323422 
L 230.712776 268.644741 
L 228.533887 267.906276 
L 226.354997 267.240155 
L 224.176107 266.657533 
L 221.997218 266.14102 
L 219.818328 265.507017 
L 217.639439 264.916695 
L 215.460549 264.335128 
L 213.28166 263.671993 
L 211.10277 262.66441 
L 208.92388 261.75956 
L 206.744991 261.228233 
L 204.566101 260.264887 
L 202.387212 259.138203 
L 200.208322 257.891042 
L 198.029433 256.596744 
L 195.850543 255.067962 
L 193.671653 253.227786 
L 191.492764 251.247019 
L 189.313874 249.329873 
L 187.134985 246.920689 
L 184.956095 244.453184 
L 182.777206 242.099979 
L 180.598316 239.621671 
L 178.419426 237.019081 
L 176.240537 234.196177 
L 174.061647 231.297708 
L 171.882758 228.341007 
L 169.703868 225.437971 
L 167.524979 222.774893 
L 165.346089 219.783908 
L 163.1672 217.436646 
L 160.98831 215.182925 
L 158.80942 213.433948 
L 156.630531 211.752134 
L 154.451641 211.180843 
L 152.272752 210.239104 
L 150.093862 209.183563 
L 147.914973 207.008102 
L 145.736083 203.860511 
L 143.557193 200.440523 
L 141.378304 196.827479 
L 139.199414 193.270531 
L 137.020525 189.211885 
L 134.841635 184.749004 
L 132.662746 179.287264 
L 130.483856 173.288517 
L 128.304966 166.349173 
L 126.126077 158.84009 
L 123.947187 150.70564 
L 121.768298 142.263191 
L 119.589408 133.003316 
L 117.410519 123.687813 
L 115.231629 114.159463 
L 113.052739 105.471377 
L 110.87385 96.336809 
L 108.69496 87.571722 
L 106.516071 80.473109 
L 104.337181 75.246204 
L 102.158292 71.423153 
L 99.979402 68.968823 
L 97.800513 66.7452 
L 95.621623 65.069651 
L 93.442733 64.203916 
L 91.263844 64.537094 
L 89.084954 65.026906 
L 86.906065 65.031297 
L 84.727175 63.681021 
L 82.548286 61.031703 
L 80.369396 57.324884 
L 78.190506 54.255728 
L 76.011617 53.568 
L 73.832727 58.436549 
z
" clip-path="url(#pc84df18364)" style="fill: #ff7f0e; fill-opacity: 0.2"/>
   </g>
   <g id="matplotlib.axis_1">
    <g id="xtick_1">
     <g id="line2d_1">
      <path d="M 71.653838 307.584 
L 71.653838 41.472 
" clip-path="url(#pc84df18364)" style="fill: none; stroke: #b0b0b0; stroke-width: 0.8; stroke-linecap: square"/>
     </g>
     <g id="line2d_2">
      <defs>
       <path id="mbbd7fc70a2" d="M 0 0 
L 0 3.5 
" style="stroke: #000000; stroke-width: 0.8"/>
      </defs>
      <g>
       <use xlink:href="#mbbd7fc70a2" x="71.653838" y="307.584" style="stroke: #000000; stroke-width: 0.8"/>
      </g>
     </g>
     <g id="text_1">
      <!-- 0 -->
      <g transform="translate(68.472588 322.182437) scale(0.1 -0.1)">
       <defs>
        <path id="DejaVuSans-30" d="M 2034 4250 
Q 1547 4250 1301 3770 
Q 1056 3291 1056 2328 
Q 1056 1369 1301 889 
Q 1547 409 2034 409 
Q 2525 409 2770 889 
Q 3016 1369 3016 2328 
Q 3016 3291 2770 3770 
Q 2525 4250 2034 4250 
z
M 2034 4750 
Q 2819 4750 3233 4129 
Q 3647 3509 3647 2328 
Q 3647 1150 3233 529 
Q 2819 -91 2034 -91 
Q 1250 -91 836 529 
Q 422 1150 422 2328 
Q 422 3509 836 4129 
Q 1250 4750 2034 4750 
z
" transform="scale(0.015625)"/>
       </defs>
       <use xlink:href="#DejaVuSans-30"/>
      </g>
     </g>
    </g>
    <g id="xtick_2">
     <g id="line2d_3">
      <path d="M 115.231629 307.584 
L 115.231629 41.472 
" clip-path="url(#pc84df18364)" style="fill: none; stroke: #b0b0b0; stroke-width: 0.8; stroke-linecap: square"/>
     </g>
     <g id="line2d_4">
      <g>
       <use xlink:href="#mbbd7fc70a2" x="115.231629" y="307.584" style="stroke: #000000; stroke-width: 0.8"/>
      </g>
     </g>
     <g id="text_2">
      <!-- 20 -->
      <g transform="translate(108.869129 322.182437) scale(0.1 -0.1)">
       <defs>
        <path id="DejaVuSans-32" d="M 1228 531 
L 3431 531 
L 3431 0 
L 469 0 
L 469 531 
Q 828 903 1448 1529 
Q 2069 2156 2228 2338 
Q 2531 2678 2651 2914 
Q 2772 3150 2772 3378 
Q 2772 3750 2511 3984 
Q 2250 4219 1831 4219 
Q 1534 4219 1204 4116 
Q 875 4013 500 3803 
L 500 4441 
Q 881 4594 1212 4672 
Q 1544 4750 1819 4750 
Q 2544 4750 2975 4387 
Q 3406 4025 3406 3419 
Q 3406 3131 3298 2873 
Q 3191 2616 2906 2266 
Q 2828 2175 2409 1742 
Q 1991 1309 1228 531 
z
" transform="scale(0.015625)"/>
       </defs>
       <use xlink:href="#DejaVuSans-32"/>
       <use xlink:href="#DejaVuSans-30" x="63.623047"/>
      </g>
     </g>
    </g>
    <g id="xtick_3">
     <g id="line2d_5">
      <path d="M 158.80942 307.584 
L 158.80942 41.472 
" clip-path="url(#pc84df18364)" style="fill: none; stroke: #b0b0b0; stroke-width: 0.8; stroke-linecap: square"/>
     </g>
     <g id="line2d_6">
      <g>
       <use xlink:href="#mbbd7fc70a2" x="158.80942" y="307.584" style="stroke: #000000; stroke-width: 0.8"/>
      </g>
     </g>
     <g id="text_3">
      <!-- 40 -->
      <g transform="translate(152.44692 322.182437) scale(0.1 -0.1)">
       <defs>
        <path id="DejaVuSans-34" d="M 2419 4116 
L 825 1625 
L 2419 1625 
L 2419 4116 
z
M 2253 4666 
L 3047 4666 
L 3047 1625 
L 3713 1625 
L 3713 1100 
L 3047 1100 
L 3047 0 
L 2419 0 
L 2419 1100 
L 313 1100 
L 313 1709 
L 2253 4666 
z
" transform="scale(0.015625)"/>
       </defs>
       <use xlink:href="#DejaVuSans-34"/>
       <use xlink:href="#DejaVuSans-30" x="63.623047"/>
      </g>
     </g>
    </g>
    <g id="xtick_4">
     <g id="line2d_7">
      <path d="M 202.387212 307.584 
L 202.387212 41.472 
" clip-path="url(#pc84df18364)" style="fill: none; stroke: #b0b0b0; stroke-width: 0.8; stroke-linecap: square"/>
     </g>
     <g id="line2d_8">
      <g>
       <use xlink:href="#mbbd7fc70a2" x="202.387212" y="307.584" style="stroke: #000000; stroke-width: 0.8"/>
      </g>
     </g>
     <g id="text_4">
      <!-- 60 -->
      <g transform="translate(196.024712 322.182437) scale(0.1 -0.1)">
       <defs>
        <path id="DejaVuSans-36" d="M 2113 2584 
Q 1688 2584 1439 2293 
Q 1191 2003 1191 1497 
Q 1191 994 1439 701 
Q 1688 409 2113 409 
Q 2538 409 2786 701 
Q 3034 994 3034 1497 
Q 3034 2003 2786 2293 
Q 2538 2584 2113 2584 
z
M 3366 4563 
L 3366 3988 
Q 3128 4100 2886 4159 
Q 2644 4219 2406 4219 
Q 1781 4219 1451 3797 
Q 1122 3375 1075 2522 
Q 1259 2794 1537 2939 
Q 1816 3084 2150 3084 
Q 2853 3084 3261 2657 
Q 3669 2231 3669 1497 
Q 3669 778 3244 343 
Q 2819 -91 2113 -91 
Q 1303 -91 875 529 
Q 447 1150 447 2328 
Q 447 3434 972 4092 
Q 1497 4750 2381 4750 
Q 2619 4750 2861 4703 
Q 3103 4656 3366 4563 
z
" transform="scale(0.015625)"/>
       </defs>
       <use xlink:href="#DejaVuSans-36"/>
       <use xlink:href="#DejaVuSans-30" x="63.623047"/>
      </g>
     </g>
    </g>
    <g id="xtick_5">
     <g id="line2d_9">
      <path d="M 245.965003 307.584 
L 245.965003 41.472 
" clip-path="url(#pc84df18364)" style="fill: none; stroke: #b0b0b0; stroke-width: 0.8; stroke-linecap: square"/>
     </g>
     <g id="line2d_10">
      <g>
       <use xlink:href="#mbbd7fc70a2" x="245.965003" y="307.584" style="stroke: #000000; stroke-width: 0.8"/>
      </g>
     </g>
     <g id="text_5">
      <!-- 80 -->
      <g transform="translate(239.602503 322.182437) scale(0.1 -0.1)">
       <defs>
        <path id="DejaVuSans-38" d="M 2034 2216 
Q 1584 2216 1326 1975 
Q 1069 1734 1069 1313 
Q 1069 891 1326 650 
Q 1584 409 2034 409 
Q 2484 409 2743 651 
Q 3003 894 3003 1313 
Q 3003 1734 2745 1975 
Q 2488 2216 2034 2216 
z
M 1403 2484 
Q 997 2584 770 2862 
Q 544 3141 544 3541 
Q 544 4100 942 4425 
Q 1341 4750 2034 4750 
Q 2731 4750 3128 4425 
Q 3525 4100 3525 3541 
Q 3525 3141 3298 2862 
Q 3072 2584 2669 2484 
Q 3125 2378 3379 2068 
Q 3634 1759 3634 1313 
Q 3634 634 3220 271 
Q 2806 -91 2034 -91 
Q 1263 -91 848 271 
Q 434 634 434 1313 
Q 434 1759 690 2068 
Q 947 2378 1403 2484 
z
M 1172 3481 
Q 1172 3119 1398 2916 
Q 1625 2713 2034 2713 
Q 2441 2713 2670 2916 
Q 2900 3119 2900 3481 
Q 2900 3844 2670 4047 
Q 2441 4250 2034 4250 
Q 1625 4250 1398 4047 
Q 1172 3844 1172 3481 
z
" transform="scale(0.015625)"/>
       </defs>
       <use xlink:href="#DejaVuSans-38"/>
       <use xlink:href="#DejaVuSans-30" x="63.623047"/>
      </g>
     </g>
    </g>
    <g id="xtick_6">
     <g id="line2d_11">
      <path d="M 289.542794 307.584 
L 289.542794 41.472 
" clip-path="url(#pc84df18364)" style="fill: none; stroke: #b0b0b0; stroke-width: 0.8; stroke-linecap: square"/>
     </g>
     <g id="line2d_12">
      <g>
       <use xlink:href="#mbbd7fc70a2" x="289.542794" y="307.584" style="stroke: #000000; stroke-width: 0.8"/>
      </g>
     </g>
     <g id="text_6">
      <!-- 100 -->
      <g transform="translate(279.999044 322.182437) scale(0.1 -0.1)">
       <defs>
        <path id="DejaVuSans-31" d="M 794 531 
L 1825 531 
L 1825 4091 
L 703 3866 
L 703 4441 
L 1819 4666 
L 2450 4666 
L 2450 531 
L 3481 531 
L 3481 0 
L 794 0 
L 794 531 
z
" transform="scale(0.015625)"/>
       </defs>
       <use xlink:href="#DejaVuSans-31"/>
       <use xlink:href="#DejaVuSans-30" x="63.623047"/>
       <use xlink:href="#DejaVuSans-30" x="127.246094"/>
      </g>
     </g>
    </g>
    <g id="xtick_7">
     <g id="line2d_13">
      <path d="M 333.120586 307.584 
L 333.120586 41.472 
" clip-path="url(#pc84df18364)" style="fill: none; stroke: #b0b0b0; stroke-width: 0.8; stroke-linecap: square"/>
     </g>
     <g id="line2d_14">
      <g>
       <use xlink:href="#mbbd7fc70a2" x="333.120586" y="307.584" style="stroke: #000000; stroke-width: 0.8"/>
      </g>
     </g>
     <g id="text_7">
      <!-- 120 -->
      <g transform="translate(323.576836 322.182437) scale(0.1 -0.1)">
       <use xlink:href="#DejaVuSans-31"/>
       <use xlink:href="#DejaVuSans-32" x="63.623047"/>
       <use xlink:href="#DejaVuSans-30" x="127.246094"/>
      </g>
     </g>
    </g>
    <g id="xtick_8">
     <g id="line2d_15">
      <path d="M 376.698377 307.584 
L 376.698377 41.472 
" clip-path="url(#pc84df18364)" style="fill: none; stroke: #b0b0b0; stroke-width: 0.8; stroke-linecap: square"/>
     </g>
     <g id="line2d_16">
      <g>
       <use xlink:href="#mbbd7fc70a2" x="376.698377" y="307.584" style="stroke: #000000; stroke-width: 0.8"/>
      </g>
     </g>
     <g id="text_8">
      <!-- 140 -->
      <g transform="translate(367.154627 322.182437) scale(0.1 -0.1)">
       <use xlink:href="#DejaVuSans-31"/>
       <use xlink:href="#DejaVuSans-34" x="63.623047"/>
       <use xlink:href="#DejaVuSans-30" x="127.246094"/>
      </g>
     </g>
    </g>
    <g id="text_9">
     <!-- Steps -->
     <g transform="translate(222.170156 335.860562) scale(0.1 -0.1)">
      <defs>
       <path id="DejaVuSans-53" d="M 3425 4513 
L 3425 3897 
Q 3066 4069 2747 4153 
Q 2428 4238 2131 4238 
Q 1616 4238 1336 4038 
Q 1056 3838 1056 3469 
Q 1056 3159 1242 3001 
Q 1428 2844 1947 2747 
L 2328 2669 
Q 3034 2534 3370 2195 
Q 3706 1856 3706 1288 
Q 3706 609 3251 259 
Q 2797 -91 1919 -91 
Q 1588 -91 1214 -16 
Q 841 59 441 206 
L 441 856 
Q 825 641 1194 531 
Q 1563 422 1919 422 
Q 2459 422 2753 634 
Q 3047 847 3047 1241 
Q 3047 1584 2836 1778 
Q 2625 1972 2144 2069 
L 1759 2144 
Q 1053 2284 737 2584 
Q 422 2884 422 3419 
Q 422 4038 858 4394 
Q 1294 4750 2059 4750 
Q 2388 4750 2728 4690 
Q 3069 4631 3425 4513 
z
" transform="scale(0.015625)"/>
       <path id="DejaVuSans-74" d="M 1172 4494 
L 1172 3500 
L 2356 3500 
L 2356 3053 
L 1172 3053 
L 1172 1153 
Q 1172 725 1289 603 
Q 1406 481 1766 481 
L 2356 481 
L 2356 0 
L 1766 0 
Q 1100 0 847 248 
Q 594 497 594 1153 
L 594 3053 
L 172 3053 
L 172 3500 
L 594 3500 
L 594 4494 
L 1172 4494 
z
" transform="scale(0.015625)"/>
       <path id="DejaVuSans-65" d="M 3597 1894 
L 3597 1613 
L 953 1613 
Q 991 1019 1311 708 
Q 1631 397 2203 397 
Q 2534 397 2845 478 
Q 3156 559 3463 722 
L 3463 178 
Q 3153 47 2828 -22 
Q 2503 -91 2169 -91 
Q 1331 -91 842 396 
Q 353 884 353 1716 
Q 353 2575 817 3079 
Q 1281 3584 2069 3584 
Q 2775 3584 3186 3129 
Q 3597 2675 3597 1894 
z
M 3022 2063 
Q 3016 2534 2758 2815 
Q 2500 3097 2075 3097 
Q 1594 3097 1305 2825 
Q 1016 2553 972 2059 
L 3022 2063 
z
" transform="scale(0.015625)"/>
       <path id="DejaVuSans-70" d="M 1159 525 
L 1159 -1331 
L 581 -1331 
L 581 3500 
L 1159 3500 
L 1159 2969 
Q 1341 3281 1617 3432 
Q 1894 3584 2278 3584 
Q 2916 3584 3314 3078 
Q 3713 2572 3713 1747 
Q 3713 922 3314 415 
Q 2916 -91 2278 -91 
Q 1894 -91 1617 61 
Q 1341 213 1159 525 
z
M 3116 1747 
Q 3116 2381 2855 2742 
Q 2594 3103 2138 3103 
Q 1681 3103 1420 2742 
Q 1159 2381 1159 1747 
Q 1159 1113 1420 752 
Q 1681 391 2138 391 
Q 2594 391 2855 752 
Q 3116 1113 3116 1747 
z
" transform="scale(0.015625)"/>
       <path id="DejaVuSans-73" d="M 2834 3397 
L 2834 2853 
Q 2591 2978 2328 3040 
Q 2066 3103 1784 3103 
Q 1356 3103 1142 2972 
Q 928 2841 928 2578 
Q 928 2378 1081 2264 
Q 1234 2150 1697 2047 
L 1894 2003 
Q 2506 1872 2764 1633 
Q 3022 1394 3022 966 
Q 3022 478 2636 193 
Q 2250 -91 1575 -91 
Q 1294 -91 989 -36 
Q 684 19 347 128 
L 347 722 
Q 666 556 975 473 
Q 1284 391 1588 391 
Q 1994 391 2212 530 
Q 2431 669 2431 922 
Q 2431 1156 2273 1281 
Q 2116 1406 1581 1522 
L 1381 1569 
Q 847 1681 609 1914 
Q 372 2147 372 2553 
Q 372 3047 722 3315 
Q 1072 3584 1716 3584 
Q 2034 3584 2315 3537 
Q 2597 3491 2834 3397 
z
" transform="scale(0.015625)"/>
      </defs>
      <use xlink:href="#DejaVuSans-53"/>
      <use xlink:href="#DejaVuSans-74" x="63.476562"/>
      <use xlink:href="#DejaVuSans-65" x="102.685547"/>
      <use xlink:href="#DejaVuSans-70" x="164.208984"/>
      <use xlink:href="#DejaVuSans-73" x="227.685547"/>
     </g>
    </g>
   </g>
   <g id="matplotlib.axis_2">
    <g id="ytick_1">
     <g id="line2d_17">
      <path d="M 57.6 296.076434 
L 414.72 296.076434 
" clip-path="url(#pc84df18364)" style="fill: none; stroke: #b0b0b0; stroke-width: 0.8; stroke-linecap: square"/>
     </g>
     <g id="line2d_18">
      <defs>
       <path id="mf4c0281367" d="M 0 0 
L -3.5 0 
" style="stroke: #000000; stroke-width: 0.8"/>
      </defs>
      <g>
       <use xlink:href="#mf4c0281367" x="57.6" y="296.076434" style="stroke: #000000; stroke-width: 0.8"/>
      </g>
     </g>
     <g id="text_10">
      <!-- 0 -->
      <g transform="translate(44.2375 299.875653) scale(0.1 -0.1)">
       <use xlink:href="#DejaVuSans-30"/>
      </g>
     </g>
    </g>
    <g id="ytick_2">
     <g id="line2d_19">
      <path d="M 57.6 237.521511 
L 414.72 237.521511 
" clip-path="url(#pc84df18364)" style="fill: none; stroke: #b0b0b0; stroke-width: 0.8; stroke-linecap: square"/>
     </g>
     <g id="line2d_20">
      <g>
       <use xlink:href="#mf4c0281367" x="57.6" y="237.521511" style="stroke: #000000; stroke-width: 0.8"/>
      </g>
     </g>
     <g id="text_11">
      <!-- 50 -->
      <g transform="translate(37.875 241.32073) scale(0.1 -0.1)">
       <defs>
        <path id="DejaVuSans-35" d="M 691 4666 
L 3169 4666 
L 3169 4134 
L 1269 4134 
L 1269 2991 
Q 1406 3038 1543 3061 
Q 1681 3084 1819 3084 
Q 2600 3084 3056 2656 
Q 3513 2228 3513 1497 
Q 3513 744 3044 326 
Q 2575 -91 1722 -91 
Q 1428 -91 1123 -41 
Q 819 9 494 109 
L 494 744 
Q 775 591 1075 516 
Q 1375 441 1709 441 
Q 2250 441 2565 725 
Q 2881 1009 2881 1497 
Q 2881 1984 2565 2268 
Q 2250 2553 1709 2553 
Q 1456 2553 1204 2497 
Q 953 2441 691 2322 
L 691 4666 
z
" transform="scale(0.015625)"/>
       </defs>
       <use xlink:href="#DejaVuSans-35"/>
       <use xlink:href="#DejaVuSans-30" x="63.623047"/>
      </g>
     </g>
    </g>
    <g id="ytick_3">
     <g id="line2d_21">
      <path d="M 57.6 178.966588 
L 414.72 178.966588 
" clip-path="url(#pc84df18364)" style="fill: none; stroke: #b0b0b0; stroke-width: 0.8; stroke-linecap: square"/>
     </g>
     <g id="line2d_22">
      <g>
       <use xlink:href="#mf4c0281367" x="57.6" y="178.966588" style="stroke: #000000; stroke-width: 0.8"/>
      </g>
     </g>
     <g id="text_12">
      <!-- 100 -->
      <g transform="translate(31.5125 182.765807) scale(0.1 -0.1)">
       <use xlink:href="#DejaVuSans-31"/>
       <use xlink:href="#DejaVuSans-30" x="63.623047"/>
       <use xlink:href="#DejaVuSans-30" x="127.246094"/>
      </g>
     </g>
    </g>
    <g id="ytick_4">
     <g id="line2d_23">
      <path d="M 57.6 120.411665 
L 414.72 120.411665 
" clip-path="url(#pc84df18364)" style="fill: none; stroke: #b0b0b0; stroke-width: 0.8; stroke-linecap: square"/>
     </g>
     <g id="line2d_24">
      <g>
       <use xlink:href="#mf4c0281367" x="57.6" y="120.411665" style="stroke: #000000; stroke-width: 0.8"/>
      </g>
     </g>
     <g id="text_13">
      <!-- 150 -->
      <g transform="translate(31.5125 124.210884) scale(0.1 -0.1)">
       <use xlink:href="#DejaVuSans-31"/>
       <use xlink:href="#DejaVuSans-35" x="63.623047"/>
       <use xlink:href="#DejaVuSans-30" x="127.246094"/>
      </g>
     </g>
    </g>
    <g id="ytick_5">
     <g id="line2d_25">
      <path d="M 57.6 61.856742 
L 414.72 61.856742 
" clip-path="url(#pc84df18364)" style="fill: none; stroke: #b0b0b0; stroke-width: 0.8; stroke-linecap: square"/>
     </g>
     <g id="line2d_26">
      <g>
       <use xlink:href="#mf4c0281367" x="57.6" y="61.856742" style="stroke: #000000; stroke-width: 0.8"/>
      </g>
     </g>
     <g id="text_14">
      <!-- 200 -->
      <g transform="translate(31.5125 65.655961) scale(0.1 -0.1)">
       <use xlink:href="#DejaVuSans-32"/>
       <use xlink:href="#DejaVuSans-30" x="63.623047"/>
       <use xlink:href="#DejaVuSans-30" x="127.246094"/>
      </g>
     </g>
    </g>
    <g id="text_15">
     <!-- Error -->
     <g transform="translate(25.432812 186.713156) rotate(-90) scale(0.1 -0.1)">
      <defs>
       <path id="DejaVuSans-45" d="M 628 4666 
L 3578 4666 
L 3578 4134 
L 1259 4134 
L 1259 2753 
L 3481 2753 
L 3481 2222 
L 1259 2222 
L 1259 531 
L 3634 531 
L 3634 0 
L 628 0 
L 628 4666 
z
" transform="scale(0.015625)"/>
       <path id="DejaVuSans-72" d="M 2631 2963 
Q 2534 3019 2420 3045 
Q 2306 3072 2169 3072 
Q 1681 3072 1420 2755 
Q 1159 2438 1159 1844 
L 1159 0 
L 581 0 
L 581 3500 
L 1159 3500 
L 1159 2956 
Q 1341 3275 1631 3429 
Q 1922 3584 2338 3584 
Q 2397 3584 2469 3576 
Q 2541 3569 2628 3553 
L 2631 2963 
z
" transform="scale(0.015625)"/>
       <path id="DejaVuSans-6f" d="M 1959 3097 
Q 1497 3097 1228 2736 
Q 959 2375 959 1747 
Q 959 1119 1226 758 
Q 1494 397 1959 397 
Q 2419 397 2687 759 
Q 2956 1122 2956 1747 
Q 2956 2369 2687 2733 
Q 2419 3097 1959 3097 
z
M 1959 3584 
Q 2709 3584 3137 3096 
Q 3566 2609 3566 1747 
Q 3566 888 3137 398 
Q 2709 -91 1959 -91 
Q 1206 -91 779 398 
Q 353 888 353 1747 
Q 353 2609 779 3096 
Q 1206 3584 1959 3584 
z
" transform="scale(0.015625)"/>
      </defs>
      <use xlink:href="#DejaVuSans-45"/>
      <use xlink:href="#DejaVuSans-72" x="63.183594"/>
      <use xlink:href="#DejaVuSans-72" x="102.546875"/>
      <use xlink:href="#DejaVuSans-6f" x="141.410156"/>
      <use xlink:href="#DejaVuSans-72" x="202.591797"/>
     </g>
    </g>
   </g>
   <g id="line2d_27">
    <path d="M 73.832727 61.463101 
L 76.011617 60.606723 
L 78.190506 60.526702 
L 82.548286 61.225719 
L 84.727175 61.817616 
L 86.906065 62.631986 
L 89.084954 63.672612 
L 97.800513 68.291226 
L 99.979402 69.12664 
L 104.337181 70.301369 
L 106.516071 70.82403 
L 108.69496 71.485479 
L 110.87385 72.734572 
L 113.052739 75.040477 
L 115.231629 78.843748 
L 117.410519 84.185257 
L 119.589408 90.836089 
L 121.768298 98.397321 
L 128.304966 122.617628 
L 132.662746 139.721299 
L 143.557193 184.84526 
L 145.736083 193.270979 
L 147.914973 201.2265 
L 150.093862 208.645804 
L 152.272752 215.485428 
L 154.451641 221.710446 
L 156.630531 227.33758 
L 158.80942 232.382848 
L 160.98831 236.871467 
L 163.1672 240.843167 
L 165.346089 244.321383 
L 167.524979 247.362738 
L 169.703868 249.982686 
L 171.882758 252.251316 
L 174.061647 254.198997 
L 176.240537 255.868391 
L 178.419426 257.302938 
L 180.598316 258.549063 
L 184.956095 260.682542 
L 215.460549 274.265261 
L 221.997218 276.783164 
L 228.533887 279.024757 
L 235.070555 281.008536 
L 243.786113 283.369138 
L 250.322782 284.944942 
L 259.03834 286.793339 
L 267.753899 288.385712 
L 276.469457 289.761391 
L 285.185015 290.943122 
L 293.900574 291.914379 
L 302.616132 292.687975 
L 311.33169 293.293766 
L 324.405027 293.956285 
L 337.478365 294.39648 
L 357.088371 294.799668 
L 376.698377 295.024612 
L 398.487273 295.174359 
L 398.487273 295.174359 
" clip-path="url(#pc84df18364)" style="fill: none; stroke: #1f77b4; stroke-width: 1.5; stroke-linecap: square"/>
   </g>
   <g id="line2d_28">
    <path d="M 73.832727 59.284951 
L 76.011617 54.879654 
L 78.190506 55.285931 
L 80.369396 57.994916 
L 82.548286 61.417323 
L 84.727175 63.971652 
L 86.906065 65.148208 
L 89.084954 65.258537 
L 91.263844 64.992405 
L 93.442733 65.027866 
L 95.621623 65.760575 
L 97.800513 67.225936 
L 99.979402 69.351819 
L 102.158292 72.332721 
L 104.337181 76.888388 
L 106.516071 83.165979 
L 108.69496 90.613311 
L 113.052739 107.059726 
L 115.231629 115.942402 
L 121.768298 144.324629 
L 123.947187 153.154208 
L 126.126077 161.333265 
L 128.304966 168.725098 
L 130.483856 175.310171 
L 132.662746 181.10351 
L 134.841635 186.233393 
L 137.020525 190.898961 
L 139.199414 195.27386 
L 141.378304 199.347293 
L 143.557193 203.013184 
L 145.736083 206.152419 
L 147.914973 208.685788 
L 150.093862 210.647517 
L 152.272752 212.121243 
L 158.80942 215.851236 
L 160.98831 217.581738 
L 163.1672 219.775257 
L 165.346089 222.290381 
L 171.882758 230.843233 
L 176.240537 236.476704 
L 180.598316 241.801541 
L 184.956095 246.703348 
L 189.313874 251.059976 
L 191.492764 252.972337 
L 193.671653 254.731431 
L 195.850543 256.345252 
L 200.208322 259.164747 
L 204.566101 261.465763 
L 208.92388 263.367155 
L 213.28166 265.000462 
L 219.818328 267.199102 
L 239.428334 273.570998 
L 254.680561 278.734946 
L 261.21723 280.792015 
L 269.932788 283.23032 
L 276.469457 284.857534 
L 285.185015 286.719327 
L 293.900574 288.285751 
L 302.616132 289.5976 
L 311.33169 290.689952 
L 322.226138 291.808685 
L 333.120586 292.675522 
L 346.193923 293.49099 
L 357.088371 293.958497 
L 387.592825 294.848406 
L 398.487273 295.054021 
L 398.487273 295.054021 
" clip-path="url(#pc84df18364)" style="fill: none; stroke: #ff7f0e; stroke-width: 1.5; stroke-linecap: square"/>
   </g>
   <g id="patch_3">
    <path d="M 57.6 307.584 
L 57.6 41.472 
" style="fill: none; stroke: #000000; stroke-width: 0.8; stroke-linejoin: miter; stroke-linecap: square"/>
   </g>
   <g id="patch_4">
    <path d="M 414.72 307.584 
L 414.72 41.472 
" style="fill: none; stroke: #000000; stroke-width: 0.8; stroke-linejoin: miter; stroke-linecap: square"/>
   </g>
   <g id="patch_5">
    <path d="M 57.6 307.584 
L 414.72 307.584 
" style="fill: none; stroke: #000000; stroke-width: 0.8; stroke-linejoin: miter; stroke-linecap: square"/>
   </g>
   <g id="patch_6">
    <path d="M 57.6 41.472 
L 414.72 41.472 
" style="fill: none; stroke: #000000; stroke-width: 0.8; stroke-linejoin: miter; stroke-linecap: square"/>
   </g>
   <g id="text_16">
    <!-- g = 18.0 -->
    <g transform="translate(210.15 35.472) scale(0.12 -0.12)">
     <defs>
      <path id="DejaVuSans-67" d="M 2906 1791 
Q 2906 2416 2648 2759 
Q 2391 3103 1925 3103 
Q 1463 3103 1205 2759 
Q 947 2416 947 1791 
Q 947 1169 1205 825 
Q 1463 481 1925 481 
Q 2391 481 2648 825 
Q 2906 1169 2906 1791 
z
M 3481 434 
Q 3481 -459 3084 -895 
Q 2688 -1331 1869 -1331 
Q 1566 -1331 1297 -1286 
Q 1028 -1241 775 -1147 
L 775 -588 
Q 1028 -725 1275 -790 
Q 1522 -856 1778 -856 
Q 2344 -856 2625 -561 
Q 2906 -266 2906 331 
L 2906 616 
Q 2728 306 2450 153 
Q 2172 0 1784 0 
Q 1141 0 747 490 
Q 353 981 353 1791 
Q 353 2603 747 3093 
Q 1141 3584 1784 3584 
Q 2172 3584 2450 3431 
Q 2728 3278 2906 2969 
L 2906 3500 
L 3481 3500 
L 3481 434 
z
" transform="scale(0.015625)"/>
      <path id="DejaVuSans-20" transform="scale(0.015625)"/>
      <path id="DejaVuSans-3d" d="M 678 2906 
L 4684 2906 
L 4684 2381 
L 678 2381 
L 678 2906 
z
M 678 1631 
L 4684 1631 
L 4684 1100 
L 678 1100 
L 678 1631 
z
" transform="scale(0.015625)"/>
      <path id="DejaVuSans-2e" d="M 684 794 
L 1344 794 
L 1344 0 
L 684 0 
L 684 794 
z
" transform="scale(0.015625)"/>
     </defs>
     <use xlink:href="#DejaVuSans-67"/>
     <use xlink:href="#DejaVuSans-20" x="63.476562"/>
     <use xlink:href="#DejaVuSans-3d" x="95.263672"/>
     <use xlink:href="#DejaVuSans-20" x="179.052734"/>
     <use xlink:href="#DejaVuSans-31" x="210.839844"/>
     <use xlink:href="#DejaVuSans-38" x="274.462891"/>
     <use xlink:href="#DejaVuSans-2e" x="338.085938"/>
     <use xlink:href="#DejaVuSans-30" x="369.873047"/>
    </g>
   </g>
   <g id="legend_1">
    <g id="patch_7">
     <path d="M 326.904375 78.82825 
L 407.72 78.82825 
Q 409.72 78.82825 409.72 76.82825 
L 409.72 48.472 
Q 409.72 46.472 407.72 46.472 
L 326.904375 46.472 
Q 324.904375 46.472 324.904375 48.472 
L 324.904375 76.82825 
Q 324.904375 78.82825 326.904375 78.82825 
z
" style="fill: #ffffff; opacity: 0.8; stroke: #cccccc; stroke-linejoin: miter"/>
    </g>
    <g id="line2d_29">
     <path d="M 328.904375 54.570437 
L 338.904375 54.570437 
L 348.904375 54.570437 
" style="fill: none; stroke: #1f77b4; stroke-width: 1.5; stroke-linecap: square"/>
    </g>
    <g id="text_17">
     <!-- Episode 1 -->
     <g transform="translate(356.904375 58.070437) scale(0.1 -0.1)">
      <defs>
       <path id="DejaVuSans-69" d="M 603 3500 
L 1178 3500 
L 1178 0 
L 603 0 
L 603 3500 
z
M 603 4863 
L 1178 4863 
L 1178 4134 
L 603 4134 
L 603 4863 
z
" transform="scale(0.015625)"/>
       <path id="DejaVuSans-64" d="M 2906 2969 
L 2906 4863 
L 3481 4863 
L 3481 0 
L 2906 0 
L 2906 525 
Q 2725 213 2448 61 
Q 2172 -91 1784 -91 
Q 1150 -91 751 415 
Q 353 922 353 1747 
Q 353 2572 751 3078 
Q 1150 3584 1784 3584 
Q 2172 3584 2448 3432 
Q 2725 3281 2906 2969 
z
M 947 1747 
Q 947 1113 1208 752 
Q 1469 391 1925 391 
Q 2381 391 2643 752 
Q 2906 1113 2906 1747 
Q 2906 2381 2643 2742 
Q 2381 3103 1925 3103 
Q 1469 3103 1208 2742 
Q 947 2381 947 1747 
z
" transform="scale(0.015625)"/>
      </defs>
      <use xlink:href="#DejaVuSans-45"/>
      <use xlink:href="#DejaVuSans-70" x="63.183594"/>
      <use xlink:href="#DejaVuSans-69" x="126.660156"/>
      <use xlink:href="#DejaVuSans-73" x="154.443359"/>
      <use xlink:href="#DejaVuSans-6f" x="206.542969"/>
      <use xlink:href="#DejaVuSans-64" x="267.724609"/>
      <use xlink:href="#DejaVuSans-65" x="331.201172"/>
      <use xlink:href="#DejaVuSans-20" x="392.724609"/>
      <use xlink:href="#DejaVuSans-31" x="424.511719"/>
     </g>
    </g>
    <g id="line2d_30">
     <path d="M 328.904375 69.248562 
L 338.904375 69.248562 
L 348.904375 69.248562 
" style="fill: none; stroke: #ff7f0e; stroke-width: 1.5; stroke-linecap: square"/>
    </g>
    <g id="text_18">
     <!-- Episode 2 -->
     <g transform="translate(356.904375 72.748562) scale(0.1 -0.1)">
      <use xlink:href="#DejaVuSans-45"/>
      <use xlink:href="#DejaVuSans-70" x="63.183594"/>
      <use xlink:href="#DejaVuSans-69" x="126.660156"/>
      <use xlink:href="#DejaVuSans-73" x="154.443359"/>
      <use xlink:href="#DejaVuSans-6f" x="206.542969"/>
      <use xlink:href="#DejaVuSans-64" x="267.724609"/>
      <use xlink:href="#DejaVuSans-65" x="331.201172"/>
      <use xlink:href="#DejaVuSans-20" x="392.724609"/>
      <use xlink:href="#DejaVuSans-32" x="424.511719"/>
     </g>
    </g>
   </g>
  </g>
 </g>
 <defs>
  <clipPath id="pc84df18364">
   <rect x="57.6" y="41.472" width="357.12" height="266.112"/>
  </clipPath>
 </defs>
</svg>
