<?xml version="1.0" encoding="utf-8" standalone="no"?>
<!DOCTYPE svg PUBLIC "-//W3C//DTD SVG 1.1//EN"
  "http://www.w3.org/Graphics/SVG/1.1/DTD/svg11.dtd">
<svg xmlns:xlink="http://www.w3.org/1999/xlink" width="460.8pt" height="345.6pt" viewBox="0 0 460.8 345.6" xmlns="http://www.w3.org/2000/svg" version="1.1">
 <metadata>
  <rdf:RDF xmlns:dc="http://purl.org/dc/elements/1.1/" xmlns:cc="http://creativecommons.org/ns#" xmlns:rdf="http://www.w3.org/1999/02/22-rdf-syntax-ns#">
   <cc:Work>
    <dc:type rdf:resource="http://purl.org/dc/dcmitype/StillImage"/>
    <dc:date>2023-12-05T13:35:37.011680</dc:date>
    <dc:format>image/svg+xml</dc:format>
    <dc:creator>
     <cc:Agent>
      <dc:title>Matplotlib v3.6.2, https://matplotlib.org/</dc:title>
     </cc:Agent>
    </dc:creator>
   </cc:Work>
  </rdf:RDF>
 </metadata>
 <defs>
  <style type="text/css">*{stroke-linejoin: round; stroke-linecap: butt}</style>
 </defs>
 <g id="figure_1">
  <g id="patch_1">
   <path d="M 0 345.6 
L 460.8 345.6 
L 460.8 0 
L 0 0 
z
" style="fill: #ffffff"/>
  </g>
  <g id="axes_1">
   <g id="patch_2">
    <path d="M 57.6 307.584 
L 414.72 307.584 
L 414.72 41.472 
L 57.6 41.472 
z
" style="fill: #ffffff"/>
   </g>
   <g id="PolyCollection_1">
    <path d="M 73.832727 267.712887 
L 73.832727 267.732841 
L 76.011617 267.745635 
L 78.190506 267.755438 
L 80.369396 267.767779 
L 82.548286 267.793922 
L 84.727175 267.82587 
L 86.906065 267.855662 
L 89.084954 267.895154 
L 91.263844 267.926963 
L 93.442733 267.951785 
L 95.621623 267.96715 
L 97.800513 267.970696 
L 99.979402 267.956026 
L 102.158292 267.91782 
L 104.337181 267.848431 
L 106.516071 267.744418 
L 108.69496 267.598687 
L 110.87385 267.399247 
L 113.052739 267.137266 
L 115.231629 266.802628 
L 117.410519 266.383445 
L 119.589408 265.871616 
L 121.768298 265.240442 
L 123.947187 264.523123 
L 126.126077 263.665983 
L 128.304966 262.677993 
L 130.483856 261.56294 
L 132.662746 260.293882 
L 134.841635 258.893974 
L 137.020525 257.389495 
L 139.199414 255.86322 
L 141.378304 254.488689 
L 143.557193 253.304595 
L 145.736083 252.23616 
L 147.914973 251.179546 
L 150.093862 250.153245 
L 152.272752 249.388473 
L 154.451641 248.640145 
L 156.630531 248.00254 
L 158.80942 247.402584 
L 160.98831 246.847752 
L 163.1672 246.479393 
L 165.346089 246.136412 
L 167.524979 245.808067 
L 169.703868 245.479339 
L 171.882758 245.132187 
L 174.061647 244.717105 
L 176.240537 244.214906 
L 178.419426 243.627221 
L 180.598316 242.959233 
L 182.777206 242.228912 
L 184.956095 241.404625 
L 187.134985 240.51665 
L 189.313874 239.614387 
L 191.492764 238.591528 
L 193.671653 237.473311 
L 195.850543 236.291859 
L 198.029433 235.008271 
L 200.208322 233.693568 
L 202.387212 232.273705 
L 204.566101 230.798185 
L 206.744991 229.227864 
L 208.92388 227.587285 
L 211.10277 225.911941 
L 213.28166 224.208579 
L 215.460549 222.406729 
L 217.639439 220.520647 
L 219.818328 218.576857 
L 221.997218 216.628652 
L 224.176107 214.591347 
L 226.354997 212.434036 
L 228.533887 210.224546 
L 230.712776 208.012204 
L 232.891666 205.788599 
L 235.070555 203.487192 
L 237.249445 201.114902 
L 239.428334 198.731313 
L 241.607224 196.326449 
L 243.786113 193.902013 
L 245.965003 191.511367 
L 248.143893 189.061205 
L 250.322782 186.636526 
L 252.501672 184.188589 
L 254.680561 181.881203 
L 256.859451 179.583724 
L 259.03834 177.328936 
L 261.21723 175.181603 
L 263.39612 172.964047 
L 265.575009 170.597771 
L 267.753899 168.416856 
L 269.932788 166.400479 
L 272.111678 164.386222 
L 274.290567 162.280953 
L 276.469457 160.316757 
L 278.648347 158.422644 
L 280.827236 156.345152 
L 283.006126 154.38026 
L 285.185015 152.617729 
L 287.363905 150.811395 
L 289.542794 148.892426 
L 291.721684 147.022127 
L 293.900574 145.20745 
L 296.079463 143.387558 
L 298.258353 141.670916 
L 300.437242 139.740475 
L 302.616132 137.817334 
L 304.795021 135.761396 
L 306.973911 133.655049 
L 309.1528 131.663772 
L 311.33169 129.696829 
L 313.51058 127.55259 
L 315.689469 125.484831 
L 317.868359 123.321124 
L 320.047248 121.272139 
L 322.226138 119.052114 
L 324.405027 116.858858 
L 326.583917 114.64961 
L 328.762807 112.543612 
L 330.941696 110.258579 
L 333.120586 108.027082 
L 335.299475 105.927689 
L 337.478365 103.807784 
L 339.657254 101.669455 
L 341.836144 99.464379 
L 344.015034 97.344823 
L 346.193923 95.205103 
L 348.372813 93.060169 
L 350.551702 90.942003 
L 352.730592 88.995223 
L 354.909481 87.019589 
L 357.088371 85.089496 
L 359.267261 83.331831 
L 361.44615 81.391309 
L 363.62504 79.571765 
L 365.803929 77.873547 
L 367.982819 76.223651 
L 370.161708 74.699948 
L 372.340598 73.127576 
L 374.519487 71.616388 
L 376.698377 70.20984 
L 378.877267 68.991016 
L 381.056156 67.560133 
L 383.235046 66.219288 
L 385.413935 64.793272 
L 387.592825 63.480239 
L 389.771714 62.107411 
L 391.950604 60.802373 
L 394.129494 59.44519 
L 396.308383 58.082096 
L 398.487273 56.703359 
L 398.487273 53.568 
L 398.487273 53.568 
L 396.308383 54.962033 
L 394.129494 56.281325 
L 391.950604 57.658324 
L 389.771714 58.878885 
L 387.592825 60.130039 
L 385.413935 61.508429 
L 383.235046 62.850664 
L 381.056156 64.181079 
L 378.877267 65.635602 
L 376.698377 67.061966 
L 374.519487 68.462605 
L 372.340598 70.075651 
L 370.161708 71.660191 
L 367.982819 73.323644 
L 365.803929 75.064274 
L 363.62504 76.860526 
L 361.44615 78.683894 
L 359.267261 80.589305 
L 357.088371 82.524265 
L 354.909481 84.38344 
L 352.730592 86.306928 
L 350.551702 88.364953 
L 348.372813 90.480685 
L 346.193923 92.530714 
L 344.015034 94.593953 
L 341.836144 96.753141 
L 339.657254 98.965865 
L 337.478365 101.166769 
L 335.299475 103.279373 
L 333.120586 105.399625 
L 330.941696 107.625559 
L 328.762807 109.826463 
L 326.583917 112.00199 
L 324.405027 114.143448 
L 322.226138 116.306459 
L 320.047248 118.350926 
L 317.868359 120.397826 
L 315.689469 122.429082 
L 313.51058 124.424531 
L 311.33169 126.395994 
L 309.1528 128.258297 
L 306.973911 130.191519 
L 304.795021 132.255454 
L 302.616132 134.278714 
L 300.437242 136.119117 
L 298.258353 137.950133 
L 296.079463 139.73387 
L 293.900574 141.515521 
L 291.721684 143.367048 
L 289.542794 145.280802 
L 287.363905 147.24253 
L 285.185015 149.248409 
L 283.006126 151.209442 
L 280.827236 153.213235 
L 278.648347 155.252139 
L 276.469457 157.313849 
L 274.290567 159.357237 
L 272.111678 161.474082 
L 269.932788 163.582862 
L 267.753899 165.732629 
L 265.575009 168.000593 
L 263.39612 170.263794 
L 261.21723 172.561376 
L 259.03834 174.798991 
L 256.859451 177.149937 
L 254.680561 179.47978 
L 252.501672 181.935157 
L 250.322782 184.425018 
L 248.143893 186.827241 
L 245.965003 189.189067 
L 243.786113 191.579817 
L 241.607224 193.93184 
L 239.428334 196.274755 
L 237.249445 198.555477 
L 235.070555 200.850453 
L 232.891666 203.111429 
L 230.712776 205.297871 
L 228.533887 207.493039 
L 226.354997 209.628866 
L 224.176107 211.703438 
L 221.997218 213.712271 
L 219.818328 215.651925 
L 217.639439 217.544612 
L 215.460549 219.410148 
L 213.28166 221.283716 
L 211.10277 222.972339 
L 208.92388 224.655816 
L 206.744991 226.16697 
L 204.566101 227.629071 
L 202.387212 229.054496 
L 200.208322 230.458055 
L 198.029433 231.736046 
L 195.850543 232.992867 
L 193.671653 234.161074 
L 191.492764 235.15859 
L 189.313874 236.173905 
L 187.134985 237.082599 
L 184.956095 237.926389 
L 182.777206 238.703294 
L 180.598316 239.445955 
L 178.419426 240.062528 
L 176.240537 240.625739 
L 174.061647 241.118205 
L 171.882758 241.54302 
L 169.703868 241.998358 
L 167.524979 242.432594 
L 165.346089 242.973868 
L 163.1672 243.481908 
L 160.98831 244.183236 
L 158.80942 244.846601 
L 156.630531 245.571985 
L 154.451641 246.396725 
L 152.272752 247.183119 
L 150.093862 248.1093 
L 147.914973 249.082307 
L 145.736083 250.154288 
L 143.557193 251.363099 
L 141.378304 252.72435 
L 139.199414 254.237554 
L 137.020525 255.773877 
L 134.841635 257.262711 
L 132.662746 258.712089 
L 130.483856 260.047545 
L 128.304966 261.259868 
L 126.126077 262.32865 
L 123.947187 263.275063 
L 121.768298 264.084402 
L 119.589408 264.787259 
L 117.410519 265.375708 
L 115.231629 265.872311 
L 113.052739 266.287183 
L 110.87385 266.614868 
L 108.69496 266.884741 
L 106.516071 267.105874 
L 104.337181 267.288767 
L 102.158292 267.436166 
L 99.979402 267.548454 
L 97.800513 267.628828 
L 95.621623 267.684102 
L 93.442733 267.723733 
L 91.263844 267.747512 
L 89.084954 267.760201 
L 86.906065 267.766076 
L 84.727175 267.765276 
L 82.548286 267.759366 
L 80.369396 267.748833 
L 78.190506 267.73312 
L 76.011617 267.701658 
L 73.832727 267.712887 
z
" clip-path="url(#p25ada6d722)" style="fill: #1f77b4; fill-opacity: 0.2"/>
   </g>
   <g id="PolyCollection_2">
    <path d="M 73.832727 267.706038 
L 73.832727 267.731416 
L 76.011617 267.743166 
L 78.190506 267.754256 
L 80.369396 267.770143 
L 82.548286 267.806471 
L 84.727175 267.8582 
L 86.906065 267.904401 
L 89.084954 267.957138 
L 91.263844 268.006607 
L 93.442733 268.058579 
L 95.621623 268.10923 
L 97.800513 268.154597 
L 99.979402 268.17775 
L 102.158292 268.183243 
L 104.337181 268.15644 
L 106.516071 268.101374 
L 108.69496 268.007094 
L 110.87385 267.887854 
L 113.052739 267.721508 
L 115.231629 267.50107 
L 117.410519 267.223967 
L 119.589408 266.976587 
L 121.768298 266.800855 
L 123.947187 266.646156 
L 126.126077 266.536997 
L 128.304966 266.451721 
L 130.483856 266.324763 
L 132.662746 266.16172 
L 134.841635 266.111139 
L 137.020525 265.997183 
L 139.199414 266.13822 
L 141.378304 266.40333 
L 143.557193 266.73543 
L 145.736083 267.251222 
L 147.914973 267.872801 
L 150.093862 268.568462 
L 152.272752 269.229324 
L 154.451641 269.893663 
L 156.630531 270.519935 
L 158.80942 271.180067 
L 160.98831 271.733092 
L 163.1672 272.316361 
L 165.346089 272.847241 
L 167.524979 273.305395 
L 169.703868 273.710151 
L 171.882758 274.069541 
L 174.061647 274.306074 
L 176.240537 274.469395 
L 178.419426 274.602784 
L 180.598316 274.690146 
L 182.777206 274.695048 
L 184.956095 274.663795 
L 187.134985 274.608347 
L 189.313874 274.502178 
L 191.492764 274.326863 
L 193.671653 274.112196 
L 195.850543 273.882928 
L 198.029433 273.623902 
L 200.208322 273.321977 
L 202.387212 272.96589 
L 204.566101 272.627707 
L 206.744991 272.233797 
L 208.92388 271.812353 
L 211.10277 271.34318 
L 213.28166 270.920172 
L 215.460549 270.375734 
L 217.639439 269.81899 
L 219.818328 269.26082 
L 221.997218 268.662116 
L 224.176107 268.095255 
L 226.354997 267.501592 
L 228.533887 266.901984 
L 230.712776 266.240808 
L 232.891666 265.58311 
L 235.070555 264.910323 
L 237.249445 264.236946 
L 239.428334 263.628265 
L 241.607224 263.045065 
L 243.786113 262.439651 
L 245.965003 261.874146 
L 248.143893 261.258408 
L 250.322782 260.664118 
L 252.501672 260.080675 
L 254.680561 259.541417 
L 256.859451 258.994755 
L 259.03834 258.409747 
L 261.21723 257.859886 
L 263.39612 257.367212 
L 265.575009 256.868349 
L 267.753899 256.324989 
L 269.932788 255.783506 
L 272.111678 255.248698 
L 274.290567 254.709058 
L 276.469457 254.119566 
L 278.648347 253.602835 
L 280.827236 253.133035 
L 283.006126 252.655031 
L 285.185015 252.159436 
L 287.363905 251.622403 
L 289.542794 251.050502 
L 291.721684 250.475263 
L 293.900574 249.873604 
L 296.079463 249.254841 
L 298.258353 248.654537 
L 300.437242 248.045995 
L 302.616132 247.451149 
L 304.795021 246.82512 
L 306.973911 246.177712 
L 309.1528 245.557906 
L 311.33169 244.936396 
L 313.51058 244.327437 
L 315.689469 243.728141 
L 317.868359 243.142682 
L 320.047248 242.553294 
L 322.226138 242.007744 
L 324.405027 241.495984 
L 326.583917 240.982417 
L 328.762807 240.463252 
L 330.941696 239.963903 
L 333.120586 239.485621 
L 335.299475 238.999587 
L 337.478365 238.565142 
L 339.657254 238.099583 
L 341.836144 237.647687 
L 344.015034 237.136796 
L 346.193923 236.676731 
L 348.372813 236.271731 
L 350.551702 235.875839 
L 352.730592 235.493818 
L 354.909481 235.038932 
L 357.088371 234.611892 
L 359.267261 234.211829 
L 361.44615 233.797652 
L 363.62504 233.383439 
L 365.803929 232.894033 
L 367.982819 232.477179 
L 370.161708 232.013393 
L 372.340598 231.531565 
L 374.519487 231.102231 
L 376.698377 230.622349 
L 378.877267 230.11942 
L 381.056156 229.611345 
L 383.235046 229.170295 
L 385.413935 228.708838 
L 387.592825 228.212131 
L 389.771714 227.709445 
L 391.950604 227.270933 
L 394.129494 226.83767 
L 396.308383 226.424431 
L 398.487273 225.993185 
L 398.487273 224.90337 
L 398.487273 224.90337 
L 396.308383 225.328081 
L 394.129494 225.767741 
L 391.950604 226.264795 
L 389.771714 226.76112 
L 387.592825 227.224593 
L 385.413935 227.659906 
L 383.235046 228.150495 
L 381.056156 228.628569 
L 378.877267 229.141058 
L 376.698377 229.632968 
L 374.519487 230.112154 
L 372.340598 230.577052 
L 370.161708 231.007568 
L 367.982819 231.388442 
L 365.803929 231.819097 
L 363.62504 232.247945 
L 361.44615 232.742636 
L 359.267261 233.217094 
L 357.088371 233.690231 
L 354.909481 234.08136 
L 352.730592 234.49293 
L 350.551702 234.876585 
L 348.372813 235.272755 
L 346.193923 235.697883 
L 344.015034 236.104794 
L 341.836144 236.539656 
L 339.657254 237.01182 
L 337.478365 237.4771 
L 335.299475 237.889922 
L 333.120586 238.317588 
L 330.941696 238.772091 
L 328.762807 239.259308 
L 326.583917 239.746907 
L 324.405027 240.258215 
L 322.226138 240.770218 
L 320.047248 241.306625 
L 317.868359 241.881899 
L 315.689469 242.52743 
L 313.51058 243.179288 
L 311.33169 243.755605 
L 309.1528 244.375793 
L 306.973911 244.97554 
L 304.795021 245.597815 
L 302.616132 246.238201 
L 300.437242 246.88627 
L 298.258353 247.540701 
L 296.079463 248.18074 
L 293.900574 248.825263 
L 291.721684 249.411661 
L 289.542794 250.021698 
L 287.363905 250.6179 
L 285.185015 251.171411 
L 283.006126 251.741018 
L 280.827236 252.276347 
L 278.648347 252.819186 
L 276.469457 253.346381 
L 274.290567 253.821743 
L 272.111678 254.266061 
L 269.932788 254.726579 
L 267.753899 255.246508 
L 265.575009 255.750272 
L 263.39612 256.271348 
L 261.21723 256.754845 
L 259.03834 257.263685 
L 256.859451 257.766024 
L 254.680561 258.273229 
L 252.501672 258.79879 
L 250.322782 259.35178 
L 248.143893 259.940229 
L 245.965003 260.53803 
L 243.786113 261.152482 
L 241.607224 261.744998 
L 239.428334 262.400298 
L 237.249445 263.029664 
L 235.070555 263.694038 
L 232.891666 264.309394 
L 230.712776 264.90935 
L 228.533887 265.525402 
L 226.354997 266.163841 
L 224.176107 266.766578 
L 221.997218 267.340391 
L 219.818328 267.882813 
L 217.639439 268.454193 
L 215.460549 268.955419 
L 213.28166 269.486994 
L 211.10277 269.990967 
L 208.92388 270.449712 
L 206.744991 270.875361 
L 204.566101 271.279562 
L 202.387212 271.66492 
L 200.208322 272.019373 
L 198.029433 272.296406 
L 195.850543 272.590266 
L 193.671653 272.830728 
L 191.492764 273.035001 
L 189.313874 273.166652 
L 187.134985 273.25523 
L 184.956095 273.323889 
L 182.777206 273.33922 
L 180.598316 273.315337 
L 178.419426 273.237953 
L 176.240537 273.097541 
L 174.061647 272.88562 
L 171.882758 272.565896 
L 169.703868 272.190585 
L 167.524979 271.76052 
L 165.346089 271.282621 
L 163.1672 270.709225 
L 160.98831 270.089836 
L 158.80942 269.401128 
L 156.630531 268.589181 
L 154.451641 267.793504 
L 152.272752 267.090543 
L 150.093862 266.390432 
L 147.914973 265.776501 
L 145.736083 265.171991 
L 143.557193 264.666072 
L 141.378304 264.387265 
L 139.199414 264.253668 
L 137.020525 264.320588 
L 134.841635 264.492357 
L 132.662746 264.710639 
L 130.483856 264.951519 
L 128.304966 265.168793 
L 126.126077 265.331488 
L 123.947187 265.532285 
L 121.768298 265.755365 
L 119.589408 266.037857 
L 117.410519 266.394639 
L 115.231629 266.704003 
L 113.052739 266.972937 
L 110.87385 267.193479 
L 108.69496 267.389235 
L 106.516071 267.540214 
L 104.337181 267.651216 
L 102.158292 267.725889 
L 99.979402 267.770317 
L 97.800513 267.798232 
L 95.621623 267.817387 
L 93.442733 267.818743 
L 91.263844 267.811582 
L 89.084954 267.801465 
L 86.906065 267.787351 
L 84.727175 267.77939 
L 82.548286 267.76771 
L 80.369396 267.74341 
L 78.190506 267.700789 
L 76.011617 267.659629 
L 73.832727 267.706038 
z
" clip-path="url(#p25ada6d722)" style="fill: #ff7f0e; fill-opacity: 0.2"/>
   </g>
   <g id="PolyCollection_3">
    <path d="M 73.832727 267.669293 
L 73.832727 267.727418 
L 76.011617 267.708159 
L 78.190506 267.678227 
L 80.369396 267.701728 
L 82.548286 267.741463 
L 84.727175 267.800214 
L 86.906065 267.87812 
L 89.084954 267.986201 
L 91.263844 268.129254 
L 93.442733 268.268449 
L 95.621623 268.405315 
L 97.800513 268.535228 
L 99.979402 268.638928 
L 102.158292 268.718677 
L 104.337181 268.781947 
L 106.516071 268.83823 
L 108.69496 268.898406 
L 110.87385 268.998944 
L 113.052739 269.243056 
L 115.231629 269.569211 
L 117.410519 270.103081 
L 119.589408 270.779726 
L 121.768298 271.505006 
L 123.947187 272.32978 
L 126.126077 273.224395 
L 128.304966 274.160344 
L 130.483856 275.093442 
L 132.662746 275.997061 
L 134.841635 276.88959 
L 137.020525 277.876121 
L 139.199414 278.867588 
L 141.378304 279.890899 
L 143.557193 280.939344 
L 145.736083 281.909658 
L 147.914973 282.862871 
L 150.093862 283.784372 
L 152.272752 284.65963 
L 154.451641 285.458485 
L 156.630531 286.20602 
L 158.80942 286.870807 
L 160.98831 287.460581 
L 163.1672 288.015719 
L 165.346089 288.504361 
L 167.524979 288.934829 
L 169.703868 289.299381 
L 171.882758 289.619007 
L 174.061647 289.899938 
L 176.240537 290.136771 
L 178.419426 290.328786 
L 180.598316 290.480666 
L 182.777206 290.628764 
L 184.956095 290.777553 
L 187.134985 290.88375 
L 189.313874 290.998996 
L 191.492764 291.121886 
L 193.671653 291.247162 
L 195.850543 291.361903 
L 198.029433 291.471904 
L 200.208322 291.565961 
L 202.387212 291.659472 
L 204.566101 291.756992 
L 206.744991 291.849283 
L 208.92388 291.938818 
L 211.10277 292.024598 
L 213.28166 292.106995 
L 215.460549 292.178393 
L 217.639439 292.242595 
L 219.818328 292.296368 
L 221.997218 292.354622 
L 224.176107 292.409149 
L 226.354997 292.457934 
L 228.533887 292.509263 
L 230.712776 292.552784 
L 232.891666 292.596468 
L 235.070555 292.641571 
L 237.249445 292.693292 
L 239.428334 292.743314 
L 241.607224 292.795335 
L 243.786113 292.842704 
L 245.965003 292.886521 
L 248.143893 292.936028 
L 250.322782 292.981353 
L 252.501672 293.027808 
L 254.680561 293.070064 
L 256.859451 293.113036 
L 259.03834 293.148644 
L 261.21723 293.179921 
L 263.39612 293.209554 
L 265.575009 293.236656 
L 267.753899 293.2694 
L 269.932788 293.296342 
L 272.111678 293.317541 
L 274.290567 293.337315 
L 276.469457 293.359035 
L 278.648347 293.385765 
L 280.827236 293.411727 
L 283.006126 293.431463 
L 285.185015 293.444412 
L 287.363905 293.451817 
L 289.542794 293.46533 
L 291.721684 293.477855 
L 293.900574 293.490846 
L 296.079463 293.510488 
L 298.258353 293.526646 
L 300.437242 293.540249 
L 302.616132 293.552368 
L 304.795021 293.563865 
L 306.973911 293.573414 
L 309.1528 293.58473 
L 311.33169 293.595163 
L 313.51058 293.610841 
L 315.689469 293.622407 
L 317.868359 293.631675 
L 320.047248 293.645004 
L 322.226138 293.656994 
L 324.405027 293.666849 
L 326.583917 293.674935 
L 328.762807 293.682941 
L 330.941696 293.692755 
L 333.120586 293.700734 
L 335.299475 293.706372 
L 337.478365 293.709977 
L 339.657254 293.716249 
L 341.836144 293.720024 
L 344.015034 293.723911 
L 346.193923 293.729237 
L 348.372813 293.733857 
L 350.551702 293.735348 
L 352.730592 293.736954 
L 354.909481 293.739833 
L 357.088371 293.745183 
L 359.267261 293.749264 
L 361.44615 293.754555 
L 363.62504 293.759175 
L 365.803929 293.762467 
L 367.982819 293.763326 
L 370.161708 293.766298 
L 372.340598 293.769639 
L 374.519487 293.77265 
L 376.698377 293.776877 
L 378.877267 293.77882 
L 381.056156 293.780406 
L 383.235046 293.783274 
L 385.413935 293.787233 
L 387.592825 293.788867 
L 389.771714 293.791899 
L 391.950604 293.798083 
L 394.129494 293.799887 
L 396.308383 293.800822 
L 398.487273 293.802891 
L 398.487273 293.656855 
L 398.487273 293.656855 
L 396.308383 293.649015 
L 394.129494 293.638506 
L 391.950604 293.632002 
L 389.771714 293.629687 
L 387.592825 293.626374 
L 385.413935 293.62135 
L 383.235046 293.616824 
L 381.056156 293.615718 
L 378.877267 293.616772 
L 376.698377 293.613003 
L 374.519487 293.607872 
L 372.340598 293.60102 
L 370.161708 293.597071 
L 367.982819 293.59485 
L 365.803929 293.592093 
L 363.62504 293.588342 
L 361.44615 293.584928 
L 359.267261 293.580857 
L 357.088371 293.576918 
L 354.909481 293.573112 
L 352.730592 293.56529 
L 350.551702 293.558789 
L 348.372813 293.555507 
L 346.193923 293.554284 
L 344.015034 293.545415 
L 341.836144 293.535177 
L 339.657254 293.52691 
L 337.478365 293.518751 
L 335.299475 293.510697 
L 333.120586 293.501839 
L 330.941696 293.49572 
L 328.762807 293.48892 
L 326.583917 293.476266 
L 324.405027 293.464944 
L 322.226138 293.456646 
L 320.047248 293.448657 
L 317.868359 293.439361 
L 315.689469 293.431605 
L 313.51058 293.421301 
L 311.33169 293.407917 
L 309.1528 293.391397 
L 306.973911 293.372583 
L 304.795021 293.355823 
L 302.616132 293.344515 
L 300.437242 293.329688 
L 298.258353 293.31274 
L 296.079463 293.295094 
L 293.900574 293.274542 
L 291.721684 293.248872 
L 289.542794 293.21982 
L 287.363905 293.196959 
L 285.185015 293.168185 
L 283.006126 293.138837 
L 280.827236 293.114294 
L 278.648347 293.084804 
L 276.469457 293.05125 
L 274.290567 293.020275 
L 272.111678 292.988953 
L 269.932788 292.957258 
L 267.753899 292.930476 
L 265.575009 292.900962 
L 263.39612 292.862381 
L 261.21723 292.815634 
L 259.03834 292.772286 
L 256.859451 292.737091 
L 254.680561 292.703395 
L 252.501672 292.657576 
L 250.322782 292.621522 
L 248.143893 292.591469 
L 245.965003 292.553774 
L 243.786113 292.513062 
L 241.607224 292.460238 
L 239.428334 292.425853 
L 237.249445 292.378359 
L 235.070555 292.329178 
L 232.891666 292.281142 
L 230.712776 292.230539 
L 228.533887 292.168069 
L 226.354997 292.10856 
L 224.176107 292.049124 
L 221.997218 291.995966 
L 219.818328 291.93967 
L 217.639439 291.86702 
L 215.460549 291.790814 
L 213.28166 291.720549 
L 211.10277 291.645741 
L 208.92388 291.559105 
L 206.744991 291.470603 
L 204.566101 291.386381 
L 202.387212 291.275637 
L 200.208322 291.166436 
L 198.029433 291.057518 
L 195.850543 290.942456 
L 193.671653 290.839687 
L 191.492764 290.751532 
L 189.313874 290.640416 
L 187.134985 290.531171 
L 184.956095 290.394771 
L 182.777206 290.244897 
L 180.598316 290.085515 
L 178.419426 289.902761 
L 176.240537 289.707808 
L 174.061647 289.456069 
L 171.882758 289.171348 
L 169.703868 288.856057 
L 167.524979 288.46991 
L 165.346089 288.034721 
L 163.1672 287.531896 
L 160.98831 286.96646 
L 158.80942 286.342594 
L 156.630531 285.632899 
L 154.451641 284.86108 
L 152.272752 283.999613 
L 150.093862 283.059923 
L 147.914973 282.048348 
L 145.736083 281.054865 
L 143.557193 280.014763 
L 141.378304 278.899119 
L 139.199414 277.716381 
L 137.020525 276.686047 
L 134.841635 275.636246 
L 132.662746 274.751192 
L 130.483856 273.765704 
L 128.304966 272.772186 
L 126.126077 271.90121 
L 123.947187 270.942699 
L 121.768298 270.132178 
L 119.589408 269.593302 
L 117.410519 269.094753 
L 115.231629 268.867675 
L 113.052739 268.71534 
L 110.87385 268.693508 
L 108.69496 268.695976 
L 106.516071 268.678942 
L 104.337181 268.637468 
L 102.158292 268.56509 
L 99.979402 268.460555 
L 97.800513 268.332554 
L 95.621623 268.191134 
L 93.442733 268.04012 
L 91.263844 267.935793 
L 89.084954 267.844886 
L 86.906065 267.765415 
L 84.727175 267.703918 
L 82.548286 267.652815 
L 80.369396 267.591144 
L 78.190506 267.542022 
L 76.011617 267.545151 
L 73.832727 267.669293 
z
" clip-path="url(#p25ada6d722)" style="fill: #2ca02c; fill-opacity: 0.2"/>
   </g>
   <g id="PolyCollection_4">
    <path d="M 73.832727 267.393997 
L 73.832727 267.599591 
L 76.011617 267.254003 
L 78.190506 267.189446 
L 80.369396 267.389791 
L 82.548286 267.663661 
L 84.727175 267.949282 
L 86.906065 268.138571 
L 89.084954 268.216408 
L 91.263844 268.263513 
L 93.442733 268.300536 
L 95.621623 268.359357 
L 97.800513 268.47891 
L 99.979402 268.65054 
L 102.158292 268.901083 
L 104.337181 269.314113 
L 106.516071 269.949807 
L 108.69496 270.827735 
L 110.87385 271.793025 
L 113.052739 272.763668 
L 115.231629 273.714844 
L 117.410519 274.731307 
L 119.589408 275.761466 
L 121.768298 276.886983 
L 123.947187 278.060926 
L 126.126077 279.175562 
L 128.304966 280.151629 
L 130.483856 281.184882 
L 132.662746 282.10558 
L 134.841635 282.941907 
L 137.020525 283.699287 
L 139.199414 284.395115 
L 141.378304 285.00016 
L 143.557193 285.527109 
L 145.736083 286.024073 
L 147.914973 286.45429 
L 150.093862 286.863893 
L 152.272752 287.21544 
L 154.451641 287.512369 
L 156.630531 287.761285 
L 158.80942 287.994607 
L 160.98831 288.182913 
L 163.1672 288.36033 
L 165.346089 288.497606 
L 167.524979 288.68862 
L 169.703868 288.842471 
L 171.882758 289.005935 
L 174.061647 289.190246 
L 176.240537 289.369447 
L 178.419426 289.528165 
L 180.598316 289.728479 
L 182.777206 289.940549 
L 184.956095 290.145166 
L 187.134985 290.353541 
L 189.313874 290.554011 
L 191.492764 290.765282 
L 193.671653 290.953236 
L 195.850543 291.143996 
L 198.029433 291.324087 
L 200.208322 291.508753 
L 202.387212 291.691292 
L 204.566101 291.860853 
L 206.744991 292.024487 
L 208.92388 292.167387 
L 211.10277 292.310104 
L 213.28166 292.452052 
L 215.460549 292.591726 
L 217.639439 292.725032 
L 219.818328 292.839155 
L 221.997218 292.945755 
L 224.176107 293.040198 
L 226.354997 293.138455 
L 228.533887 293.233061 
L 230.712776 293.318327 
L 232.891666 293.40881 
L 235.070555 293.495334 
L 237.249445 293.573682 
L 239.428334 293.648365 
L 241.607224 293.721053 
L 243.786113 293.788982 
L 245.965003 293.853497 
L 248.143893 293.916722 
L 250.322782 293.978963 
L 252.501672 294.033883 
L 254.680561 294.091331 
L 256.859451 294.148667 
L 259.03834 294.204552 
L 261.21723 294.253612 
L 263.39612 294.310104 
L 265.575009 294.35776 
L 267.753899 294.397281 
L 269.932788 294.454758 
L 272.111678 294.505332 
L 274.290567 294.56277 
L 276.469457 294.620139 
L 278.648347 294.662174 
L 280.827236 294.711396 
L 283.006126 294.766686 
L 285.185015 294.817957 
L 287.363905 294.856215 
L 289.542794 294.902005 
L 291.721684 294.944488 
L 293.900574 294.98335 
L 296.079463 295.017017 
L 298.258353 295.055064 
L 300.437242 295.085215 
L 302.616132 295.109742 
L 304.795021 295.135049 
L 306.973911 295.164906 
L 309.1528 295.192928 
L 311.33169 295.214603 
L 313.51058 295.224794 
L 315.689469 295.244623 
L 317.868359 295.26166 
L 320.047248 295.280514 
L 322.226138 295.294549 
L 324.405027 295.305566 
L 326.583917 295.315178 
L 328.762807 295.320558 
L 330.941696 295.332903 
L 333.120586 295.34416 
L 335.299475 295.355132 
L 337.478365 295.360343 
L 339.657254 295.36824 
L 341.836144 295.376531 
L 344.015034 295.387657 
L 346.193923 295.394633 
L 348.372813 295.400312 
L 350.551702 295.406859 
L 352.730592 295.412542 
L 354.909481 295.418056 
L 357.088371 295.421473 
L 359.267261 295.424624 
L 361.44615 295.435868 
L 363.62504 295.442833 
L 365.803929 295.444599 
L 367.982819 295.450385 
L 370.161708 295.45658 
L 372.340598 295.458505 
L 374.519487 295.460204 
L 376.698377 295.463641 
L 378.877267 295.46843 
L 381.056156 295.472017 
L 383.235046 295.472163 
L 385.413935 295.474809 
L 387.592825 295.480203 
L 389.771714 295.482091 
L 391.950604 295.48296 
L 394.129494 295.485502 
L 396.308383 295.487612 
L 398.487273 295.488 
L 398.487273 295.40359 
L 398.487273 295.40359 
L 396.308383 295.400341 
L 394.129494 295.394948 
L 391.950604 295.397822 
L 389.771714 295.397152 
L 387.592825 295.392995 
L 385.413935 295.390887 
L 383.235046 295.388948 
L 381.056156 295.383454 
L 378.877267 295.38416 
L 376.698377 295.374276 
L 374.519487 295.369902 
L 372.340598 295.35799 
L 370.161708 295.352087 
L 367.982819 295.343731 
L 365.803929 295.335246 
L 363.62504 295.331044 
L 361.44615 295.328202 
L 359.267261 295.317686 
L 357.088371 295.303456 
L 354.909481 295.296545 
L 352.730592 295.287869 
L 350.551702 295.275771 
L 348.372813 295.272306 
L 346.193923 295.263042 
L 344.015034 295.259156 
L 341.836144 295.247745 
L 339.657254 295.244268 
L 337.478365 295.240208 
L 335.299475 295.232236 
L 333.120586 295.222985 
L 330.941696 295.213354 
L 328.762807 295.202194 
L 326.583917 295.184881 
L 324.405027 295.162554 
L 322.226138 295.147267 
L 320.047248 295.126524 
L 317.868359 295.107311 
L 315.689469 295.073191 
L 313.51058 295.039087 
L 311.33169 295.006878 
L 309.1528 294.973432 
L 306.973911 294.943729 
L 304.795021 294.907969 
L 302.616132 294.875662 
L 300.437242 294.842394 
L 298.258353 294.805213 
L 296.079463 294.763459 
L 293.900574 294.71542 
L 291.721684 294.662139 
L 289.542794 294.603073 
L 287.363905 294.539668 
L 285.185015 294.480322 
L 283.006126 294.427635 
L 280.827236 294.363461 
L 278.648347 294.296499 
L 276.469457 294.244868 
L 274.290567 294.178873 
L 272.111678 294.11002 
L 269.932788 294.041632 
L 267.753899 293.984689 
L 265.575009 293.930447 
L 263.39612 293.885198 
L 261.21723 293.839247 
L 259.03834 293.768523 
L 256.859451 293.69829 
L 254.680561 293.637557 
L 252.501672 293.577513 
L 250.322782 293.492129 
L 248.143893 293.416796 
L 245.965003 293.350035 
L 243.786113 293.283365 
L 241.607224 293.202977 
L 239.428334 293.108457 
L 237.249445 293.039107 
L 235.070555 292.957669 
L 232.891666 292.887213 
L 230.712776 292.826285 
L 228.533887 292.750493 
L 226.354997 292.670004 
L 224.176107 292.588187 
L 221.997218 292.490723 
L 219.818328 292.390012 
L 217.639439 292.285199 
L 215.460549 292.163494 
L 213.28166 292.03388 
L 211.10277 291.907151 
L 208.92388 291.766882 
L 206.744991 291.636427 
L 204.566101 291.476882 
L 202.387212 291.318709 
L 200.208322 291.156932 
L 198.029433 290.982678 
L 195.850543 290.778992 
L 193.671653 290.58924 
L 191.492764 290.396659 
L 189.313874 290.192862 
L 187.134985 289.989799 
L 184.956095 289.784994 
L 182.777206 289.55573 
L 180.598316 289.350275 
L 178.419426 289.100228 
L 176.240537 288.912441 
L 174.061647 288.691707 
L 171.882758 288.510917 
L 169.703868 288.332074 
L 167.524979 288.140122 
L 165.346089 287.995796 
L 163.1672 287.862316 
L 160.98831 287.718992 
L 158.80942 287.505089 
L 156.630531 287.333905 
L 154.451641 287.12133 
L 152.272752 286.802983 
L 150.093862 286.44441 
L 147.914973 286.050521 
L 145.736083 285.583812 
L 143.557193 285.099366 
L 141.378304 284.591768 
L 139.199414 283.968558 
L 137.020525 283.27862 
L 134.841635 282.500109 
L 132.662746 281.648407 
L 130.483856 280.741155 
L 128.304966 279.736513 
L 126.126077 278.633975 
L 123.947187 277.476579 
L 121.768298 276.314838 
L 119.589408 275.111833 
L 117.410519 273.988819 
L 115.231629 272.933525 
L 113.052739 271.914247 
L 110.87385 270.933452 
L 108.69496 270.144519 
L 106.516071 269.557078 
L 104.337181 269.115542 
L 102.158292 268.794949 
L 99.979402 268.547951 
L 97.800513 268.350423 
L 95.621623 268.22569 
L 93.442733 268.185329 
L 91.263844 268.197774 
L 89.084954 268.18147 
L 86.906065 268.08062 
L 84.727175 267.859591 
L 82.548286 267.57178 
L 80.369396 267.218579 
L 78.190506 266.975961 
L 76.011617 266.933167 
L 73.832727 267.393997 
z
" clip-path="url(#p25ada6d722)" style="fill: #d62728; fill-opacity: 0.2"/>
   </g>
   <g id="PolyCollection_5">
    <path d="M 73.832727 267.289045 
L 73.832727 267.443849 
L 76.011617 267.043264 
L 78.190506 267.051329 
L 80.369396 267.336915 
L 82.548286 267.745913 
L 84.727175 268.035635 
L 86.906065 268.139162 
L 89.084954 268.152094 
L 91.263844 268.12915 
L 93.442733 268.13878 
L 95.621623 268.247695 
L 97.800513 268.438132 
L 99.979402 268.710125 
L 102.158292 269.126006 
L 104.337181 269.854275 
L 106.516071 270.746665 
L 108.69496 271.729928 
L 110.87385 272.712461 
L 113.052739 273.677438 
L 115.231629 274.781506 
L 117.410519 275.928889 
L 119.589408 277.085276 
L 121.768298 278.16122 
L 123.947187 279.163707 
L 126.126077 280.07706 
L 128.304966 280.849202 
L 130.483856 281.526611 
L 132.662746 282.125545 
L 134.841635 282.697836 
L 137.020525 283.244474 
L 139.199414 283.749219 
L 141.378304 284.239185 
L 143.557193 284.650818 
L 145.736083 284.900089 
L 147.914973 285.10537 
L 150.093862 285.267307 
L 152.272752 285.376974 
L 154.451641 285.438203 
L 156.630531 285.598462 
L 158.80942 285.74018 
L 160.98831 285.964338 
L 163.1672 286.35741 
L 165.346089 286.783623 
L 167.524979 287.160294 
L 169.703868 287.559265 
L 171.882758 287.966375 
L 174.061647 288.333378 
L 176.240537 288.72263 
L 178.419426 289.092288 
L 180.598316 289.463355 
L 182.777206 289.786378 
L 184.956095 290.053872 
L 187.134985 290.314213 
L 189.313874 290.558252 
L 191.492764 290.739949 
L 193.671653 290.923005 
L 195.850543 291.126805 
L 198.029433 291.293165 
L 200.208322 291.436086 
L 202.387212 291.544633 
L 204.566101 291.660998 
L 206.744991 291.762116 
L 208.92388 291.884308 
L 211.10277 291.970669 
L 213.28166 292.063759 
L 215.460549 292.157552 
L 217.639439 292.241789 
L 219.818328 292.31673 
L 221.997218 292.396412 
L 224.176107 292.476421 
L 226.354997 292.564569 
L 228.533887 292.654398 
L 230.712776 292.736674 
L 232.891666 292.844425 
L 235.070555 292.926819 
L 237.249445 293.023105 
L 239.428334 293.119376 
L 241.607224 293.212495 
L 243.786113 293.299652 
L 245.965003 293.370375 
L 248.143893 293.446908 
L 250.322782 293.539147 
L 252.501672 293.617537 
L 254.680561 293.691247 
L 256.859451 293.767101 
L 259.03834 293.85237 
L 261.21723 293.923786 
L 263.39612 293.98205 
L 265.575009 294.056358 
L 267.753899 294.127913 
L 269.932788 294.194192 
L 272.111678 294.248305 
L 274.290567 294.297943 
L 276.469457 294.342148 
L 278.648347 294.386414 
L 280.827236 294.434622 
L 283.006126 294.485891 
L 285.185015 294.539301 
L 287.363905 294.592943 
L 289.542794 294.642647 
L 291.721684 294.68211 
L 293.900574 294.71961 
L 296.079463 294.755118 
L 298.258353 294.79087 
L 300.437242 294.819911 
L 302.616132 294.859363 
L 304.795021 294.895726 
L 306.973911 294.921049 
L 309.1528 294.949969 
L 311.33169 294.980201 
L 313.51058 295.008768 
L 315.689469 295.04044 
L 317.868359 295.066133 
L 320.047248 295.09499 
L 322.226138 295.112587 
L 324.405027 295.13523 
L 326.583917 295.154304 
L 328.762807 295.173949 
L 330.941696 295.190593 
L 333.120586 295.21667 
L 335.299475 295.219901 
L 337.478365 295.239276 
L 339.657254 295.249293 
L 341.836144 295.270523 
L 344.015034 295.284645 
L 346.193923 295.293792 
L 348.372813 295.304587 
L 350.551702 295.315739 
L 352.730592 295.322827 
L 354.909481 295.327566 
L 357.088371 295.335981 
L 359.267261 295.351358 
L 361.44615 295.364115 
L 363.62504 295.370749 
L 365.803929 295.381501 
L 367.982819 295.386785 
L 370.161708 295.394596 
L 372.340598 295.402256 
L 374.519487 295.408733 
L 376.698377 295.410883 
L 378.877267 295.414653 
L 381.056156 295.42086 
L 383.235046 295.424911 
L 385.413935 295.428657 
L 387.592825 295.435802 
L 389.771714 295.436394 
L 391.950604 295.443511 
L 394.129494 295.447327 
L 396.308383 295.44993 
L 398.487273 295.454037 
L 398.487273 295.390065 
L 398.487273 295.390065 
L 396.308383 295.384268 
L 394.129494 295.381377 
L 391.950604 295.376596 
L 389.771714 295.364921 
L 387.592825 295.358028 
L 385.413935 295.353534 
L 383.235046 295.348219 
L 381.056156 295.342254 
L 378.877267 295.337479 
L 376.698377 295.335676 
L 374.519487 295.330054 
L 372.340598 295.318928 
L 370.161708 295.309677 
L 367.982819 295.30198 
L 365.803929 295.293807 
L 363.62504 295.28547 
L 361.44615 295.276171 
L 359.267261 295.271802 
L 357.088371 295.261011 
L 354.909481 295.248668 
L 352.730592 295.238221 
L 350.551702 295.223668 
L 348.372813 295.209827 
L 346.193923 295.197372 
L 344.015034 295.18265 
L 341.836144 295.15989 
L 339.657254 295.141535 
L 337.478365 295.123366 
L 335.299475 295.105809 
L 333.120586 295.091132 
L 330.941696 295.070163 
L 328.762807 295.046177 
L 326.583917 295.024008 
L 324.405027 295.004188 
L 322.226138 294.971824 
L 320.047248 294.950035 
L 317.868359 294.922791 
L 315.689469 294.889742 
L 313.51058 294.862379 
L 311.33169 294.828626 
L 309.1528 294.800174 
L 306.973911 294.771629 
L 304.795021 294.736807 
L 302.616132 294.699344 
L 300.437242 294.662157 
L 298.258353 294.619621 
L 296.079463 294.57697 
L 293.900574 294.536845 
L 291.721684 294.491518 
L 289.542794 294.446575 
L 287.363905 294.400186 
L 285.185015 294.348094 
L 283.006126 294.304186 
L 280.827236 294.259452 
L 278.648347 294.204014 
L 276.469457 294.147825 
L 274.290567 294.074317 
L 272.111678 294.001181 
L 269.932788 293.930019 
L 267.753899 293.857974 
L 265.575009 293.78117 
L 263.39612 293.70908 
L 261.21723 293.635061 
L 259.03834 293.565373 
L 256.859451 293.495338 
L 254.680561 293.400547 
L 252.501672 293.310053 
L 250.322782 293.214571 
L 248.143893 293.12368 
L 245.965003 293.032658 
L 243.786113 292.940488 
L 241.607224 292.851169 
L 239.428334 292.750896 
L 237.249445 292.648683 
L 235.070555 292.550204 
L 232.891666 292.437552 
L 230.712776 292.316538 
L 228.533887 292.20715 
L 226.354997 292.105003 
L 224.176107 292.030862 
L 221.997218 291.942545 
L 219.818328 291.875189 
L 217.639439 291.784323 
L 215.460549 291.712901 
L 213.28166 291.647395 
L 211.10277 291.590209 
L 208.92388 291.522857 
L 206.744991 291.428615 
L 204.566101 291.330706 
L 202.387212 291.213055 
L 200.208322 291.0767 
L 198.029433 290.92894 
L 195.850543 290.805583 
L 193.671653 290.613377 
L 191.492764 290.418129 
L 189.313874 290.200156 
L 187.134985 289.965124 
L 184.956095 289.655224 
L 182.777206 289.333414 
L 180.598316 289.038981 
L 178.419426 288.678101 
L 176.240537 288.282456 
L 174.061647 287.919705 
L 171.882758 287.53507 
L 169.703868 287.141785 
L 167.524979 286.684428 
L 165.346089 286.229361 
L 163.1672 285.799404 
L 160.98831 285.411932 
L 158.80942 285.079829 
L 156.630531 284.882161 
L 154.451641 284.7019 
L 152.272752 284.664942 
L 150.093862 284.615077 
L 147.914973 284.492193 
L 145.736083 284.286113 
L 143.557193 284.05746 
L 141.378304 283.626975 
L 139.199414 283.214192 
L 137.020525 282.711655 
L 134.841635 282.20586 
L 132.662746 281.668097 
L 130.483856 281.081494 
L 128.304966 280.377559 
L 126.126077 279.586993 
L 123.947187 278.649097 
L 121.768298 277.632634 
L 119.589408 276.549008 
L 117.410519 275.439483 
L 115.231629 274.359541 
L 113.052739 273.252936 
L 110.87385 272.207306 
L 108.69496 271.193903 
L 106.516071 270.237721 
L 104.337181 269.474897 
L 102.158292 268.965396 
L 99.979402 268.577535 
L 97.800513 268.310792 
L 95.621623 268.075127 
L 93.442733 267.978136 
L 91.263844 267.980222 
L 89.084954 268.062647 
L 86.906065 268.104016 
L 84.727175 267.97671 
L 82.548286 267.633799 
L 80.369396 267.189238 
L 78.190506 266.80016 
L 76.011617 266.679077 
L 73.832727 267.289045 
z
" clip-path="url(#p25ada6d722)" style="fill: #9467bd; fill-opacity: 0.2"/>
   </g>
   <g id="matplotlib.axis_1">
    <g id="xtick_1">
     <g id="line2d_1">
      <path d="M 71.653838 307.584 
L 71.653838 41.472 
" clip-path="url(#p25ada6d722)" style="fill: none; stroke: #b0b0b0; stroke-width: 0.8; stroke-linecap: square"/>
     </g>
     <g id="line2d_2">
      <defs>
       <path id="m07dcca6cbb" d="M 0 0 
L 0 3.5 
" style="stroke: #000000; stroke-width: 0.8"/>
      </defs>
      <g>
       <use xlink:href="#m07dcca6cbb" x="71.653838" y="307.584" style="stroke: #000000; stroke-width: 0.8"/>
      </g>
     </g>
     <g id="text_1">
      <!-- 0 -->
      <g transform="translate(68.472588 322.182437) scale(0.1 -0.1)">
       <defs>
        <path id="DejaVuSans-30" d="M 2034 4250 
Q 1547 4250 1301 3770 
Q 1056 3291 1056 2328 
Q 1056 1369 1301 889 
Q 1547 409 2034 409 
Q 2525 409 2770 889 
Q 3016 1369 3016 2328 
Q 3016 3291 2770 3770 
Q 2525 4250 2034 4250 
z
M 2034 4750 
Q 2819 4750 3233 4129 
Q 3647 3509 3647 2328 
Q 3647 1150 3233 529 
Q 2819 -91 2034 -91 
Q 1250 -91 836 529 
Q 422 1150 422 2328 
Q 422 3509 836 4129 
Q 1250 4750 2034 4750 
z
" transform="scale(0.015625)"/>
       </defs>
       <use xlink:href="#DejaVuSans-30"/>
      </g>
     </g>
    </g>
    <g id="xtick_2">
     <g id="line2d_3">
      <path d="M 115.231629 307.584 
L 115.231629 41.472 
" clip-path="url(#p25ada6d722)" style="fill: none; stroke: #b0b0b0; stroke-width: 0.8; stroke-linecap: square"/>
     </g>
     <g id="line2d_4">
      <g>
       <use xlink:href="#m07dcca6cbb" x="115.231629" y="307.584" style="stroke: #000000; stroke-width: 0.8"/>
      </g>
     </g>
     <g id="text_2">
      <!-- 20 -->
      <g transform="translate(108.869129 322.182437) scale(0.1 -0.1)">
       <defs>
        <path id="DejaVuSans-32" d="M 1228 531 
L 3431 531 
L 3431 0 
L 469 0 
L 469 531 
Q 828 903 1448 1529 
Q 2069 2156 2228 2338 
Q 2531 2678 2651 2914 
Q 2772 3150 2772 3378 
Q 2772 3750 2511 3984 
Q 2250 4219 1831 4219 
Q 1534 4219 1204 4116 
Q 875 4013 500 3803 
L 500 4441 
Q 881 4594 1212 4672 
Q 1544 4750 1819 4750 
Q 2544 4750 2975 4387 
Q 3406 4025 3406 3419 
Q 3406 3131 3298 2873 
Q 3191 2616 2906 2266 
Q 2828 2175 2409 1742 
Q 1991 1309 1228 531 
z
" transform="scale(0.015625)"/>
       </defs>
       <use xlink:href="#DejaVuSans-32"/>
       <use xlink:href="#DejaVuSans-30" x="63.623047"/>
      </g>
     </g>
    </g>
    <g id="xtick_3">
     <g id="line2d_5">
      <path d="M 158.80942 307.584 
L 158.80942 41.472 
" clip-path="url(#p25ada6d722)" style="fill: none; stroke: #b0b0b0; stroke-width: 0.8; stroke-linecap: square"/>
     </g>
     <g id="line2d_6">
      <g>
       <use xlink:href="#m07dcca6cbb" x="158.80942" y="307.584" style="stroke: #000000; stroke-width: 0.8"/>
      </g>
     </g>
     <g id="text_3">
      <!-- 40 -->
      <g transform="translate(152.44692 322.182437) scale(0.1 -0.1)">
       <defs>
        <path id="DejaVuSans-34" d="M 2419 4116 
L 825 1625 
L 2419 1625 
L 2419 4116 
z
M 2253 4666 
L 3047 4666 
L 3047 1625 
L 3713 1625 
L 3713 1100 
L 3047 1100 
L 3047 0 
L 2419 0 
L 2419 1100 
L 313 1100 
L 313 1709 
L 2253 4666 
z
" transform="scale(0.015625)"/>
       </defs>
       <use xlink:href="#DejaVuSans-34"/>
       <use xlink:href="#DejaVuSans-30" x="63.623047"/>
      </g>
     </g>
    </g>
    <g id="xtick_4">
     <g id="line2d_7">
      <path d="M 202.387212 307.584 
L 202.387212 41.472 
" clip-path="url(#p25ada6d722)" style="fill: none; stroke: #b0b0b0; stroke-width: 0.8; stroke-linecap: square"/>
     </g>
     <g id="line2d_8">
      <g>
       <use xlink:href="#m07dcca6cbb" x="202.387212" y="307.584" style="stroke: #000000; stroke-width: 0.8"/>
      </g>
     </g>
     <g id="text_4">
      <!-- 60 -->
      <g transform="translate(196.024712 322.182437) scale(0.1 -0.1)">
       <defs>
        <path id="DejaVuSans-36" d="M 2113 2584 
Q 1688 2584 1439 2293 
Q 1191 2003 1191 1497 
Q 1191 994 1439 701 
Q 1688 409 2113 409 
Q 2538 409 2786 701 
Q 3034 994 3034 1497 
Q 3034 2003 2786 2293 
Q 2538 2584 2113 2584 
z
M 3366 4563 
L 3366 3988 
Q 3128 4100 2886 4159 
Q 2644 4219 2406 4219 
Q 1781 4219 1451 3797 
Q 1122 3375 1075 2522 
Q 1259 2794 1537 2939 
Q 1816 3084 2150 3084 
Q 2853 3084 3261 2657 
Q 3669 2231 3669 1497 
Q 3669 778 3244 343 
Q 2819 -91 2113 -91 
Q 1303 -91 875 529 
Q 447 1150 447 2328 
Q 447 3434 972 4092 
Q 1497 4750 2381 4750 
Q 2619 4750 2861 4703 
Q 3103 4656 3366 4563 
z
" transform="scale(0.015625)"/>
       </defs>
       <use xlink:href="#DejaVuSans-36"/>
       <use xlink:href="#DejaVuSans-30" x="63.623047"/>
      </g>
     </g>
    </g>
    <g id="xtick_5">
     <g id="line2d_9">
      <path d="M 245.965003 307.584 
L 245.965003 41.472 
" clip-path="url(#p25ada6d722)" style="fill: none; stroke: #b0b0b0; stroke-width: 0.8; stroke-linecap: square"/>
     </g>
     <g id="line2d_10">
      <g>
       <use xlink:href="#m07dcca6cbb" x="245.965003" y="307.584" style="stroke: #000000; stroke-width: 0.8"/>
      </g>
     </g>
     <g id="text_5">
      <!-- 80 -->
      <g transform="translate(239.602503 322.182437) scale(0.1 -0.1)">
       <defs>
        <path id="DejaVuSans-38" d="M 2034 2216 
Q 1584 2216 1326 1975 
Q 1069 1734 1069 1313 
Q 1069 891 1326 650 
Q 1584 409 2034 409 
Q 2484 409 2743 651 
Q 3003 894 3003 1313 
Q 3003 1734 2745 1975 
Q 2488 2216 2034 2216 
z
M 1403 2484 
Q 997 2584 770 2862 
Q 544 3141 544 3541 
Q 544 4100 942 4425 
Q 1341 4750 2034 4750 
Q 2731 4750 3128 4425 
Q 3525 4100 3525 3541 
Q 3525 3141 3298 2862 
Q 3072 2584 2669 2484 
Q 3125 2378 3379 2068 
Q 3634 1759 3634 1313 
Q 3634 634 3220 271 
Q 2806 -91 2034 -91 
Q 1263 -91 848 271 
Q 434 634 434 1313 
Q 434 1759 690 2068 
Q 947 2378 1403 2484 
z
M 1172 3481 
Q 1172 3119 1398 2916 
Q 1625 2713 2034 2713 
Q 2441 2713 2670 2916 
Q 2900 3119 2900 3481 
Q 2900 3844 2670 4047 
Q 2441 4250 2034 4250 
Q 1625 4250 1398 4047 
Q 1172 3844 1172 3481 
z
" transform="scale(0.015625)"/>
       </defs>
       <use xlink:href="#DejaVuSans-38"/>
       <use xlink:href="#DejaVuSans-30" x="63.623047"/>
      </g>
     </g>
    </g>
    <g id="xtick_6">
     <g id="line2d_11">
      <path d="M 289.542794 307.584 
L 289.542794 41.472 
" clip-path="url(#p25ada6d722)" style="fill: none; stroke: #b0b0b0; stroke-width: 0.8; stroke-linecap: square"/>
     </g>
     <g id="line2d_12">
      <g>
       <use xlink:href="#m07dcca6cbb" x="289.542794" y="307.584" style="stroke: #000000; stroke-width: 0.8"/>
      </g>
     </g>
     <g id="text_6">
      <!-- 100 -->
      <g transform="translate(279.999044 322.182437) scale(0.1 -0.1)">
       <defs>
        <path id="DejaVuSans-31" d="M 794 531 
L 1825 531 
L 1825 4091 
L 703 3866 
L 703 4441 
L 1819 4666 
L 2450 4666 
L 2450 531 
L 3481 531 
L 3481 0 
L 794 0 
L 794 531 
z
" transform="scale(0.015625)"/>
       </defs>
       <use xlink:href="#DejaVuSans-31"/>
       <use xlink:href="#DejaVuSans-30" x="63.623047"/>
       <use xlink:href="#DejaVuSans-30" x="127.246094"/>
      </g>
     </g>
    </g>
    <g id="xtick_7">
     <g id="line2d_13">
      <path d="M 333.120586 307.584 
L 333.120586 41.472 
" clip-path="url(#p25ada6d722)" style="fill: none; stroke: #b0b0b0; stroke-width: 0.8; stroke-linecap: square"/>
     </g>
     <g id="line2d_14">
      <g>
       <use xlink:href="#m07dcca6cbb" x="333.120586" y="307.584" style="stroke: #000000; stroke-width: 0.8"/>
      </g>
     </g>
     <g id="text_7">
      <!-- 120 -->
      <g transform="translate(323.576836 322.182437) scale(0.1 -0.1)">
       <use xlink:href="#DejaVuSans-31"/>
       <use xlink:href="#DejaVuSans-32" x="63.623047"/>
       <use xlink:href="#DejaVuSans-30" x="127.246094"/>
      </g>
     </g>
    </g>
    <g id="xtick_8">
     <g id="line2d_15">
      <path d="M 376.698377 307.584 
L 376.698377 41.472 
" clip-path="url(#p25ada6d722)" style="fill: none; stroke: #b0b0b0; stroke-width: 0.8; stroke-linecap: square"/>
     </g>
     <g id="line2d_16">
      <g>
       <use xlink:href="#m07dcca6cbb" x="376.698377" y="307.584" style="stroke: #000000; stroke-width: 0.8"/>
      </g>
     </g>
     <g id="text_8">
      <!-- 140 -->
      <g transform="translate(367.154627 322.182437) scale(0.1 -0.1)">
       <use xlink:href="#DejaVuSans-31"/>
       <use xlink:href="#DejaVuSans-34" x="63.623047"/>
       <use xlink:href="#DejaVuSans-30" x="127.246094"/>
      </g>
     </g>
    </g>
    <g id="text_9">
     <!-- Steps -->
     <g transform="translate(222.170156 335.860562) scale(0.1 -0.1)">
      <defs>
       <path id="DejaVuSans-53" d="M 3425 4513 
L 3425 3897 
Q 3066 4069 2747 4153 
Q 2428 4238 2131 4238 
Q 1616 4238 1336 4038 
Q 1056 3838 1056 3469 
Q 1056 3159 1242 3001 
Q 1428 2844 1947 2747 
L 2328 2669 
Q 3034 2534 3370 2195 
Q 3706 1856 3706 1288 
Q 3706 609 3251 259 
Q 2797 -91 1919 -91 
Q 1588 -91 1214 -16 
Q 841 59 441 206 
L 441 856 
Q 825 641 1194 531 
Q 1563 422 1919 422 
Q 2459 422 2753 634 
Q 3047 847 3047 1241 
Q 3047 1584 2836 1778 
Q 2625 1972 2144 2069 
L 1759 2144 
Q 1053 2284 737 2584 
Q 422 2884 422 3419 
Q 422 4038 858 4394 
Q 1294 4750 2059 4750 
Q 2388 4750 2728 4690 
Q 3069 4631 3425 4513 
z
" transform="scale(0.015625)"/>
       <path id="DejaVuSans-74" d="M 1172 4494 
L 1172 3500 
L 2356 3500 
L 2356 3053 
L 1172 3053 
L 1172 1153 
Q 1172 725 1289 603 
Q 1406 481 1766 481 
L 2356 481 
L 2356 0 
L 1766 0 
Q 1100 0 847 248 
Q 594 497 594 1153 
L 594 3053 
L 172 3053 
L 172 3500 
L 594 3500 
L 594 4494 
L 1172 4494 
z
" transform="scale(0.015625)"/>
       <path id="DejaVuSans-65" d="M 3597 1894 
L 3597 1613 
L 953 1613 
Q 991 1019 1311 708 
Q 1631 397 2203 397 
Q 2534 397 2845 478 
Q 3156 559 3463 722 
L 3463 178 
Q 3153 47 2828 -22 
Q 2503 -91 2169 -91 
Q 1331 -91 842 396 
Q 353 884 353 1716 
Q 353 2575 817 3079 
Q 1281 3584 2069 3584 
Q 2775 3584 3186 3129 
Q 3597 2675 3597 1894 
z
M 3022 2063 
Q 3016 2534 2758 2815 
Q 2500 3097 2075 3097 
Q 1594 3097 1305 2825 
Q 1016 2553 972 2059 
L 3022 2063 
z
" transform="scale(0.015625)"/>
       <path id="DejaVuSans-70" d="M 1159 525 
L 1159 -1331 
L 581 -1331 
L 581 3500 
L 1159 3500 
L 1159 2969 
Q 1341 3281 1617 3432 
Q 1894 3584 2278 3584 
Q 2916 3584 3314 3078 
Q 3713 2572 3713 1747 
Q 3713 922 3314 415 
Q 2916 -91 2278 -91 
Q 1894 -91 1617 61 
Q 1341 213 1159 525 
z
M 3116 1747 
Q 3116 2381 2855 2742 
Q 2594 3103 2138 3103 
Q 1681 3103 1420 2742 
Q 1159 2381 1159 1747 
Q 1159 1113 1420 752 
Q 1681 391 2138 391 
Q 2594 391 2855 752 
Q 3116 1113 3116 1747 
z
" transform="scale(0.015625)"/>
       <path id="DejaVuSans-73" d="M 2834 3397 
L 2834 2853 
Q 2591 2978 2328 3040 
Q 2066 3103 1784 3103 
Q 1356 3103 1142 2972 
Q 928 2841 928 2578 
Q 928 2378 1081 2264 
Q 1234 2150 1697 2047 
L 1894 2003 
Q 2506 1872 2764 1633 
Q 3022 1394 3022 966 
Q 3022 478 2636 193 
Q 2250 -91 1575 -91 
Q 1294 -91 989 -36 
Q 684 19 347 128 
L 347 722 
Q 666 556 975 473 
Q 1284 391 1588 391 
Q 1994 391 2212 530 
Q 2431 669 2431 922 
Q 2431 1156 2273 1281 
Q 2116 1406 1581 1522 
L 1381 1569 
Q 847 1681 609 1914 
Q 372 2147 372 2553 
Q 372 3047 722 3315 
Q 1072 3584 1716 3584 
Q 2034 3584 2315 3537 
Q 2597 3491 2834 3397 
z
" transform="scale(0.015625)"/>
      </defs>
      <use xlink:href="#DejaVuSans-53"/>
      <use xlink:href="#DejaVuSans-74" x="63.476562"/>
      <use xlink:href="#DejaVuSans-65" x="102.685547"/>
      <use xlink:href="#DejaVuSans-70" x="164.208984"/>
      <use xlink:href="#DejaVuSans-73" x="227.685547"/>
     </g>
    </g>
   </g>
   <g id="matplotlib.axis_2">
    <g id="ytick_1">
     <g id="line2d_17">
      <path d="M 57.6 295.539533 
L 414.72 295.539533 
" clip-path="url(#p25ada6d722)" style="fill: none; stroke: #b0b0b0; stroke-width: 0.8; stroke-linecap: square"/>
     </g>
     <g id="line2d_18">
      <defs>
       <path id="m5c754c8f29" d="M 0 0 
L -3.5 0 
" style="stroke: #000000; stroke-width: 0.8"/>
      </defs>
      <g>
       <use xlink:href="#m5c754c8f29" x="57.6" y="295.539533" style="stroke: #000000; stroke-width: 0.8"/>
      </g>
     </g>
     <g id="text_10">
      <!-- 0 -->
      <g transform="translate(44.2375 299.338752) scale(0.1 -0.1)">
       <use xlink:href="#DejaVuSans-30"/>
      </g>
     </g>
    </g>
    <g id="ytick_2">
     <g id="line2d_19">
      <path d="M 57.6 260.775606 
L 414.72 260.775606 
" clip-path="url(#p25ada6d722)" style="fill: none; stroke: #b0b0b0; stroke-width: 0.8; stroke-linecap: square"/>
     </g>
     <g id="line2d_20">
      <g>
       <use xlink:href="#m5c754c8f29" x="57.6" y="260.775606" style="stroke: #000000; stroke-width: 0.8"/>
      </g>
     </g>
     <g id="text_11">
      <!-- 250 -->
      <g transform="translate(31.5125 264.574825) scale(0.1 -0.1)">
       <defs>
        <path id="DejaVuSans-35" d="M 691 4666 
L 3169 4666 
L 3169 4134 
L 1269 4134 
L 1269 2991 
Q 1406 3038 1543 3061 
Q 1681 3084 1819 3084 
Q 2600 3084 3056 2656 
Q 3513 2228 3513 1497 
Q 3513 744 3044 326 
Q 2575 -91 1722 -91 
Q 1428 -91 1123 -41 
Q 819 9 494 109 
L 494 744 
Q 775 591 1075 516 
Q 1375 441 1709 441 
Q 2250 441 2565 725 
Q 2881 1009 2881 1497 
Q 2881 1984 2565 2268 
Q 2250 2553 1709 2553 
Q 1456 2553 1204 2497 
Q 953 2441 691 2322 
L 691 4666 
z
" transform="scale(0.015625)"/>
       </defs>
       <use xlink:href="#DejaVuSans-32"/>
       <use xlink:href="#DejaVuSans-35" x="63.623047"/>
       <use xlink:href="#DejaVuSans-30" x="127.246094"/>
      </g>
     </g>
    </g>
    <g id="ytick_3">
     <g id="line2d_21">
      <path d="M 57.6 226.011679 
L 414.72 226.011679 
" clip-path="url(#p25ada6d722)" style="fill: none; stroke: #b0b0b0; stroke-width: 0.8; stroke-linecap: square"/>
     </g>
     <g id="line2d_22">
      <g>
       <use xlink:href="#m5c754c8f29" x="57.6" y="226.011679" style="stroke: #000000; stroke-width: 0.8"/>
      </g>
     </g>
     <g id="text_12">
      <!-- 500 -->
      <g transform="translate(31.5125 229.810898) scale(0.1 -0.1)">
       <use xlink:href="#DejaVuSans-35"/>
       <use xlink:href="#DejaVuSans-30" x="63.623047"/>
       <use xlink:href="#DejaVuSans-30" x="127.246094"/>
      </g>
     </g>
    </g>
    <g id="ytick_4">
     <g id="line2d_23">
      <path d="M 57.6 191.247752 
L 414.72 191.247752 
" clip-path="url(#p25ada6d722)" style="fill: none; stroke: #b0b0b0; stroke-width: 0.8; stroke-linecap: square"/>
     </g>
     <g id="line2d_24">
      <g>
       <use xlink:href="#m5c754c8f29" x="57.6" y="191.247752" style="stroke: #000000; stroke-width: 0.8"/>
      </g>
     </g>
     <g id="text_13">
      <!-- 750 -->
      <g transform="translate(31.5125 195.046971) scale(0.1 -0.1)">
       <defs>
        <path id="DejaVuSans-37" d="M 525 4666 
L 3525 4666 
L 3525 4397 
L 1831 0 
L 1172 0 
L 2766 4134 
L 525 4134 
L 525 4666 
z
" transform="scale(0.015625)"/>
       </defs>
       <use xlink:href="#DejaVuSans-37"/>
       <use xlink:href="#DejaVuSans-35" x="63.623047"/>
       <use xlink:href="#DejaVuSans-30" x="127.246094"/>
      </g>
     </g>
    </g>
    <g id="ytick_5">
     <g id="line2d_25">
      <path d="M 57.6 156.483825 
L 414.72 156.483825 
" clip-path="url(#p25ada6d722)" style="fill: none; stroke: #b0b0b0; stroke-width: 0.8; stroke-linecap: square"/>
     </g>
     <g id="line2d_26">
      <g>
       <use xlink:href="#m5c754c8f29" x="57.6" y="156.483825" style="stroke: #000000; stroke-width: 0.8"/>
      </g>
     </g>
     <g id="text_14">
      <!-- 1000 -->
      <g transform="translate(25.15 160.283044) scale(0.1 -0.1)">
       <use xlink:href="#DejaVuSans-31"/>
       <use xlink:href="#DejaVuSans-30" x="63.623047"/>
       <use xlink:href="#DejaVuSans-30" x="127.246094"/>
       <use xlink:href="#DejaVuSans-30" x="190.869141"/>
      </g>
     </g>
    </g>
    <g id="ytick_6">
     <g id="line2d_27">
      <path d="M 57.6 121.719898 
L 414.72 121.719898 
" clip-path="url(#p25ada6d722)" style="fill: none; stroke: #b0b0b0; stroke-width: 0.8; stroke-linecap: square"/>
     </g>
     <g id="line2d_28">
      <g>
       <use xlink:href="#m5c754c8f29" x="57.6" y="121.719898" style="stroke: #000000; stroke-width: 0.8"/>
      </g>
     </g>
     <g id="text_15">
      <!-- 1250 -->
      <g transform="translate(25.15 125.519117) scale(0.1 -0.1)">
       <use xlink:href="#DejaVuSans-31"/>
       <use xlink:href="#DejaVuSans-32" x="63.623047"/>
       <use xlink:href="#DejaVuSans-35" x="127.246094"/>
       <use xlink:href="#DejaVuSans-30" x="190.869141"/>
      </g>
     </g>
    </g>
    <g id="ytick_7">
     <g id="line2d_29">
      <path d="M 57.6 86.955971 
L 414.72 86.955971 
" clip-path="url(#p25ada6d722)" style="fill: none; stroke: #b0b0b0; stroke-width: 0.8; stroke-linecap: square"/>
     </g>
     <g id="line2d_30">
      <g>
       <use xlink:href="#m5c754c8f29" x="57.6" y="86.955971" style="stroke: #000000; stroke-width: 0.8"/>
      </g>
     </g>
     <g id="text_16">
      <!-- 1500 -->
      <g transform="translate(25.15 90.75519) scale(0.1 -0.1)">
       <use xlink:href="#DejaVuSans-31"/>
       <use xlink:href="#DejaVuSans-35" x="63.623047"/>
       <use xlink:href="#DejaVuSans-30" x="127.246094"/>
       <use xlink:href="#DejaVuSans-30" x="190.869141"/>
      </g>
     </g>
    </g>
    <g id="ytick_8">
     <g id="line2d_31">
      <path d="M 57.6 52.192044 
L 414.72 52.192044 
" clip-path="url(#p25ada6d722)" style="fill: none; stroke: #b0b0b0; stroke-width: 0.8; stroke-linecap: square"/>
     </g>
     <g id="line2d_32">
      <g>
       <use xlink:href="#m5c754c8f29" x="57.6" y="52.192044" style="stroke: #000000; stroke-width: 0.8"/>
      </g>
     </g>
     <g id="text_17">
      <!-- 1750 -->
      <g transform="translate(25.15 55.991263) scale(0.1 -0.1)">
       <use xlink:href="#DejaVuSans-31"/>
       <use xlink:href="#DejaVuSans-37" x="63.623047"/>
       <use xlink:href="#DejaVuSans-35" x="127.246094"/>
       <use xlink:href="#DejaVuSans-30" x="190.869141"/>
      </g>
     </g>
    </g>
    <g id="text_18">
     <!-- Error -->
     <g transform="translate(19.070312 186.713156) rotate(-90) scale(0.1 -0.1)">
      <defs>
       <path id="DejaVuSans-45" d="M 628 4666 
L 3578 4666 
L 3578 4134 
L 1259 4134 
L 1259 2753 
L 3481 2753 
L 3481 2222 
L 1259 2222 
L 1259 531 
L 3634 531 
L 3634 0 
L 628 0 
L 628 4666 
z
" transform="scale(0.015625)"/>
       <path id="DejaVuSans-72" d="M 2631 2963 
Q 2534 3019 2420 3045 
Q 2306 3072 2169 3072 
Q 1681 3072 1420 2755 
Q 1159 2438 1159 1844 
L 1159 0 
L 581 0 
L 581 3500 
L 1159 3500 
L 1159 2956 
Q 1341 3275 1631 3429 
Q 1922 3584 2338 3584 
Q 2397 3584 2469 3576 
Q 2541 3569 2628 3553 
L 2631 2963 
z
" transform="scale(0.015625)"/>
       <path id="DejaVuSans-6f" d="M 1959 3097 
Q 1497 3097 1228 2736 
Q 959 2375 959 1747 
Q 959 1119 1226 758 
Q 1494 397 1959 397 
Q 2419 397 2687 759 
Q 2956 1122 2956 1747 
Q 2956 2369 2687 2733 
Q 2419 3097 1959 3097 
z
M 1959 3584 
Q 2709 3584 3137 3096 
Q 3566 2609 3566 1747 
Q 3566 888 3137 398 
Q 2709 -91 1959 -91 
Q 1206 -91 779 398 
Q 353 888 353 1747 
Q 353 2609 779 3096 
Q 1206 3584 1959 3584 
z
" transform="scale(0.015625)"/>
      </defs>
      <use xlink:href="#DejaVuSans-45"/>
      <use xlink:href="#DejaVuSans-72" x="63.183594"/>
      <use xlink:href="#DejaVuSans-72" x="102.546875"/>
      <use xlink:href="#DejaVuSans-6f" x="141.410156"/>
      <use xlink:href="#DejaVuSans-72" x="202.591797"/>
     </g>
    </g>
   </g>
   <g id="line2d_33">
    <path d="M 73.832727 267.720464 
L 82.548286 267.77695 
L 97.800513 267.806189 
L 104.337181 267.586686 
L 108.69496 267.255417 
L 113.052739 266.70588 
L 117.410519 265.869196 
L 121.768298 264.669227 
L 123.947187 263.906872 
L 126.126077 263.021971 
L 128.304966 262.006367 
L 130.483856 260.855278 
L 132.662746 259.566604 
L 137.020525 256.640163 
L 141.378304 253.663983 
L 143.557193 252.334706 
L 145.736083 251.143541 
L 150.093862 249.173349 
L 154.451641 247.55757 
L 158.80942 246.211114 
L 163.1672 245.141054 
L 169.703868 243.903204 
L 174.061647 243.058926 
L 178.419426 241.985381 
L 182.777206 240.618772 
L 187.134985 238.949344 
L 191.492764 236.966069 
L 195.850543 234.676228 
L 200.208322 232.093237 
L 204.566101 229.239964 
L 208.92388 226.120839 
L 213.28166 222.736912 
L 217.639439 219.10169 
L 221.997218 215.213882 
L 226.354997 211.082922 
L 230.712776 206.726053 
L 237.249445 199.842062 
L 248.143893 187.871828 
L 256.859451 178.376594 
L 263.39612 171.540417 
L 269.932788 165.026682 
L 276.469457 158.822001 
L 285.185015 150.956366 
L 298.258353 139.625045 
L 306.973911 131.976299 
L 313.51058 126.001757 
L 320.047248 119.777957 
L 328.762807 111.135617 
L 344.015034 95.871208 
L 350.551702 89.661105 
L 357.088371 83.819847 
L 363.62504 78.399651 
L 367.982819 75.030206 
L 374.519487 70.322085 
L 381.056156 65.959894 
L 389.771714 60.499037 
L 398.487273 55.15368 
L 398.487273 55.15368 
" clip-path="url(#p25ada6d722)" style="fill: none; stroke: #1f77b4; stroke-width: 1.5; stroke-linecap: square"/>
   </g>
   <g id="line2d_34">
    <path d="M 73.832727 267.709291 
L 78.190506 267.716978 
L 99.979402 267.983386 
L 106.516071 267.822532 
L 113.052739 267.357737 
L 126.126077 265.961774 
L 139.199414 265.227598 
L 141.378304 265.403369 
L 143.557193 265.744292 
L 145.736083 266.233249 
L 150.093862 267.511709 
L 160.98831 270.912589 
L 165.346089 272.034911 
L 169.703868 272.922371 
L 174.061647 273.544573 
L 178.419426 273.906132 
L 182.777206 274.026909 
L 187.134985 273.944848 
L 191.492764 273.679947 
L 198.029433 273.005109 
L 204.566101 272.031242 
L 211.10277 270.772036 
L 217.639439 269.251232 
L 224.176107 267.494754 
L 250.322782 260.064499 
L 261.21723 257.377111 
L 285.185015 251.629648 
L 296.079463 248.687897 
L 317.868359 242.610849 
L 326.583917 240.438243 
L 335.299475 238.472653 
L 346.193923 236.254915 
L 370.161708 231.480484 
L 398.487273 225.518326 
L 398.487273 225.518326 
" clip-path="url(#p25ada6d722)" style="fill: none; stroke: #ff7f0e; stroke-width: 1.5; stroke-linecap: square"/>
   </g>
   <g id="line2d_35">
    <path d="M 73.832727 267.689524 
L 78.190506 267.598979 
L 89.084954 267.922024 
L 106.516071 268.72723 
L 113.052739 268.953741 
L 115.231629 269.169651 
L 117.410519 269.528692 
L 119.589408 270.055204 
L 121.768298 270.728496 
L 126.126077 272.423848 
L 134.841635 276.247923 
L 152.272752 284.356692 
L 156.630531 285.9307 
L 160.98831 287.220601 
L 165.346089 288.249318 
L 169.703868 289.045263 
L 174.061647 289.640706 
L 180.598316 290.256865 
L 189.313874 290.796877 
L 208.92388 291.741911 
L 224.176107 292.229999 
L 252.501672 292.841108 
L 280.827236 293.256766 
L 317.868359 293.530087 
L 370.161708 293.681452 
L 398.487273 293.730903 
L 398.487273 293.730903 
" clip-path="url(#p25ada6d722)" style="fill: none; stroke: #2ca02c; stroke-width: 1.5; stroke-linecap: square"/>
   </g>
   <g id="line2d_36">
    <path d="M 73.832727 267.503789 
L 76.011617 267.089636 
L 78.190506 267.085939 
L 82.548286 267.620242 
L 86.906065 268.103323 
L 91.263844 268.224819 
L 95.621623 268.294005 
L 99.979402 268.592672 
L 104.337181 269.212472 
L 106.516071 269.748964 
L 108.69496 270.483224 
L 113.052739 272.318316 
L 117.410519 274.312856 
L 130.483856 280.939643 
L 134.841635 282.700082 
L 139.199414 284.125961 
L 143.557193 285.275798 
L 147.914973 286.202881 
L 152.272752 286.957947 
L 156.630531 287.529272 
L 163.1672 288.095328 
L 174.061647 288.939422 
L 206.744991 291.802592 
L 219.818328 292.576089 
L 235.070555 293.205666 
L 259.03834 293.946589 
L 293.900574 294.841375 
L 315.689469 295.155024 
L 344.015034 295.318707 
L 398.487273 295.439538 
L 398.487273 295.439538 
" clip-path="url(#p25ada6d722)" style="fill: none; stroke: #d62728; stroke-width: 1.5; stroke-linecap: square"/>
   </g>
   <g id="line2d_37">
    <path d="M 73.832727 267.383528 
L 76.011617 266.85013 
L 78.190506 266.926104 
L 84.727175 268.001109 
L 86.906065 268.121449 
L 95.621623 268.164057 
L 99.979402 268.638059 
L 102.158292 269.044322 
L 104.337181 269.672653 
L 108.69496 271.435044 
L 113.052739 273.43045 
L 123.947187 278.868895 
L 128.304966 280.570982 
L 132.662746 281.866188 
L 139.199414 283.464855 
L 143.557193 284.324713 
L 147.914973 284.804242 
L 158.80942 285.425643 
L 163.1672 286.080793 
L 180.598316 289.223849 
L 187.134985 290.107478 
L 193.671653 290.750376 
L 202.387212 291.340729 
L 215.460549 291.906055 
L 278.648347 294.279794 
L 302.616132 294.773445 
L 330.941696 295.124025 
L 370.161708 295.347357 
L 398.487273 295.419448 
L 398.487273 295.419448 
" clip-path="url(#p25ada6d722)" style="fill: none; stroke: #9467bd; stroke-width: 1.5; stroke-linecap: square"/>
   </g>
   <g id="patch_3">
    <path d="M 57.6 307.584 
L 57.6 41.472 
" style="fill: none; stroke: #000000; stroke-width: 0.8; stroke-linejoin: miter; stroke-linecap: square"/>
   </g>
   <g id="patch_4">
    <path d="M 414.72 307.584 
L 414.72 41.472 
" style="fill: none; stroke: #000000; stroke-width: 0.8; stroke-linejoin: miter; stroke-linecap: square"/>
   </g>
   <g id="patch_5">
    <path d="M 57.6 307.584 
L 414.72 307.584 
" style="fill: none; stroke: #000000; stroke-width: 0.8; stroke-linejoin: miter; stroke-linecap: square"/>
   </g>
   <g id="patch_6">
    <path d="M 57.6 41.472 
L 414.72 41.472 
" style="fill: none; stroke: #000000; stroke-width: 0.8; stroke-linejoin: miter; stroke-linecap: square"/>
   </g>
   <g id="text_19">
    <!-- g = 39.0 -->
    <g transform="translate(210.15 35.472) scale(0.12 -0.12)">
     <defs>
      <path id="DejaVuSans-67" d="M 2906 1791 
Q 2906 2416 2648 2759 
Q 2391 3103 1925 3103 
Q 1463 3103 1205 2759 
Q 947 2416 947 1791 
Q 947 1169 1205 825 
Q 1463 481 1925 481 
Q 2391 481 2648 825 
Q 2906 1169 2906 1791 
z
M 3481 434 
Q 3481 -459 3084 -895 
Q 2688 -1331 1869 -1331 
Q 1566 -1331 1297 -1286 
Q 1028 -1241 775 -1147 
L 775 -588 
Q 1028 -725 1275 -790 
Q 1522 -856 1778 -856 
Q 2344 -856 2625 -561 
Q 2906 -266 2906 331 
L 2906 616 
Q 2728 306 2450 153 
Q 2172 0 1784 0 
Q 1141 0 747 490 
Q 353 981 353 1791 
Q 353 2603 747 3093 
Q 1141 3584 1784 3584 
Q 2172 3584 2450 3431 
Q 2728 3278 2906 2969 
L 2906 3500 
L 3481 3500 
L 3481 434 
z
" transform="scale(0.015625)"/>
      <path id="DejaVuSans-20" transform="scale(0.015625)"/>
      <path id="DejaVuSans-3d" d="M 678 2906 
L 4684 2906 
L 4684 2381 
L 678 2381 
L 678 2906 
z
M 678 1631 
L 4684 1631 
L 4684 1100 
L 678 1100 
L 678 1631 
z
" transform="scale(0.015625)"/>
      <path id="DejaVuSans-33" d="M 2597 2516 
Q 3050 2419 3304 2112 
Q 3559 1806 3559 1356 
Q 3559 666 3084 287 
Q 2609 -91 1734 -91 
Q 1441 -91 1130 -33 
Q 819 25 488 141 
L 488 750 
Q 750 597 1062 519 
Q 1375 441 1716 441 
Q 2309 441 2620 675 
Q 2931 909 2931 1356 
Q 2931 1769 2642 2001 
Q 2353 2234 1838 2234 
L 1294 2234 
L 1294 2753 
L 1863 2753 
Q 2328 2753 2575 2939 
Q 2822 3125 2822 3475 
Q 2822 3834 2567 4026 
Q 2313 4219 1838 4219 
Q 1578 4219 1281 4162 
Q 984 4106 628 3988 
L 628 4550 
Q 988 4650 1302 4700 
Q 1616 4750 1894 4750 
Q 2613 4750 3031 4423 
Q 3450 4097 3450 3541 
Q 3450 3153 3228 2886 
Q 3006 2619 2597 2516 
z
" transform="scale(0.015625)"/>
      <path id="DejaVuSans-39" d="M 703 97 
L 703 672 
Q 941 559 1184 500 
Q 1428 441 1663 441 
Q 2288 441 2617 861 
Q 2947 1281 2994 2138 
Q 2813 1869 2534 1725 
Q 2256 1581 1919 1581 
Q 1219 1581 811 2004 
Q 403 2428 403 3163 
Q 403 3881 828 4315 
Q 1253 4750 1959 4750 
Q 2769 4750 3195 4129 
Q 3622 3509 3622 2328 
Q 3622 1225 3098 567 
Q 2575 -91 1691 -91 
Q 1453 -91 1209 -44 
Q 966 3 703 97 
z
M 1959 2075 
Q 2384 2075 2632 2365 
Q 2881 2656 2881 3163 
Q 2881 3666 2632 3958 
Q 2384 4250 1959 4250 
Q 1534 4250 1286 3958 
Q 1038 3666 1038 3163 
Q 1038 2656 1286 2365 
Q 1534 2075 1959 2075 
z
" transform="scale(0.015625)"/>
      <path id="DejaVuSans-2e" d="M 684 794 
L 1344 794 
L 1344 0 
L 684 0 
L 684 794 
z
" transform="scale(0.015625)"/>
     </defs>
     <use xlink:href="#DejaVuSans-67"/>
     <use xlink:href="#DejaVuSans-20" x="63.476562"/>
     <use xlink:href="#DejaVuSans-3d" x="95.263672"/>
     <use xlink:href="#DejaVuSans-20" x="179.052734"/>
     <use xlink:href="#DejaVuSans-33" x="210.839844"/>
     <use xlink:href="#DejaVuSans-39" x="274.462891"/>
     <use xlink:href="#DejaVuSans-2e" x="338.085938"/>
     <use xlink:href="#DejaVuSans-30" x="369.873047"/>
    </g>
   </g>
   <g id="legend_1">
    <g id="patch_7">
     <path d="M 64.6 122.862625 
L 145.415625 122.862625 
Q 147.415625 122.862625 147.415625 120.862625 
L 147.415625 48.472 
Q 147.415625 46.472 145.415625 46.472 
L 64.6 46.472 
Q 62.6 46.472 62.6 48.472 
L 62.6 120.862625 
Q 62.6 122.862625 64.6 122.862625 
z
" style="fill: #ffffff; opacity: 0.8; stroke: #cccccc; stroke-linejoin: miter"/>
    </g>
    <g id="line2d_38">
     <path d="M 66.6 54.570438 
L 76.6 54.570438 
L 86.6 54.570438 
" style="fill: none; stroke: #1f77b4; stroke-width: 1.5; stroke-linecap: square"/>
    </g>
    <g id="text_20">
     <!-- Episode 1 -->
     <g transform="translate(94.6 58.070438) scale(0.1 -0.1)">
      <defs>
       <path id="DejaVuSans-69" d="M 603 3500 
L 1178 3500 
L 1178 0 
L 603 0 
L 603 3500 
z
M 603 4863 
L 1178 4863 
L 1178 4134 
L 603 4134 
L 603 4863 
z
" transform="scale(0.015625)"/>
       <path id="DejaVuSans-64" d="M 2906 2969 
L 2906 4863 
L 3481 4863 
L 3481 0 
L 2906 0 
L 2906 525 
Q 2725 213 2448 61 
Q 2172 -91 1784 -91 
Q 1150 -91 751 415 
Q 353 922 353 1747 
Q 353 2572 751 3078 
Q 1150 3584 1784 3584 
Q 2172 3584 2448 3432 
Q 2725 3281 2906 2969 
z
M 947 1747 
Q 947 1113 1208 752 
Q 1469 391 1925 391 
Q 2381 391 2643 752 
Q 2906 1113 2906 1747 
Q 2906 2381 2643 2742 
Q 2381 3103 1925 3103 
Q 1469 3103 1208 2742 
Q 947 2381 947 1747 
z
" transform="scale(0.015625)"/>
      </defs>
      <use xlink:href="#DejaVuSans-45"/>
      <use xlink:href="#DejaVuSans-70" x="63.183594"/>
      <use xlink:href="#DejaVuSans-69" x="126.660156"/>
      <use xlink:href="#DejaVuSans-73" x="154.443359"/>
      <use xlink:href="#DejaVuSans-6f" x="206.542969"/>
      <use xlink:href="#DejaVuSans-64" x="267.724609"/>
      <use xlink:href="#DejaVuSans-65" x="331.201172"/>
      <use xlink:href="#DejaVuSans-20" x="392.724609"/>
      <use xlink:href="#DejaVuSans-31" x="424.511719"/>
     </g>
    </g>
    <g id="line2d_39">
     <path d="M 66.6 69.248563 
L 76.6 69.248563 
L 86.6 69.248563 
" style="fill: none; stroke: #ff7f0e; stroke-width: 1.5; stroke-linecap: square"/>
    </g>
    <g id="text_21">
     <!-- Episode 2 -->
     <g transform="translate(94.6 72.748563) scale(0.1 -0.1)">
      <use xlink:href="#DejaVuSans-45"/>
      <use xlink:href="#DejaVuSans-70" x="63.183594"/>
      <use xlink:href="#DejaVuSans-69" x="126.660156"/>
      <use xlink:href="#DejaVuSans-73" x="154.443359"/>
      <use xlink:href="#DejaVuSans-6f" x="206.542969"/>
      <use xlink:href="#DejaVuSans-64" x="267.724609"/>
      <use xlink:href="#DejaVuSans-65" x="331.201172"/>
      <use xlink:href="#DejaVuSans-20" x="392.724609"/>
      <use xlink:href="#DejaVuSans-32" x="424.511719"/>
     </g>
    </g>
    <g id="line2d_40">
     <path d="M 66.6 83.926688 
L 76.6 83.926688 
L 86.6 83.926688 
" style="fill: none; stroke: #2ca02c; stroke-width: 1.5; stroke-linecap: square"/>
    </g>
    <g id="text_22">
     <!-- Episode 3 -->
     <g transform="translate(94.6 87.426688) scale(0.1 -0.1)">
      <use xlink:href="#DejaVuSans-45"/>
      <use xlink:href="#DejaVuSans-70" x="63.183594"/>
      <use xlink:href="#DejaVuSans-69" x="126.660156"/>
      <use xlink:href="#DejaVuSans-73" x="154.443359"/>
      <use xlink:href="#DejaVuSans-6f" x="206.542969"/>
      <use xlink:href="#DejaVuSans-64" x="267.724609"/>
      <use xlink:href="#DejaVuSans-65" x="331.201172"/>
      <use xlink:href="#DejaVuSans-20" x="392.724609"/>
      <use xlink:href="#DejaVuSans-33" x="424.511719"/>
     </g>
    </g>
    <g id="line2d_41">
     <path d="M 66.6 98.604813 
L 76.6 98.604813 
L 86.6 98.604813 
" style="fill: none; stroke: #d62728; stroke-width: 1.5; stroke-linecap: square"/>
    </g>
    <g id="text_23">
     <!-- Episode 4 -->
     <g transform="translate(94.6 102.104813) scale(0.1 -0.1)">
      <use xlink:href="#DejaVuSans-45"/>
      <use xlink:href="#DejaVuSans-70" x="63.183594"/>
      <use xlink:href="#DejaVuSans-69" x="126.660156"/>
      <use xlink:href="#DejaVuSans-73" x="154.443359"/>
      <use xlink:href="#DejaVuSans-6f" x="206.542969"/>
      <use xlink:href="#DejaVuSans-64" x="267.724609"/>
      <use xlink:href="#DejaVuSans-65" x="331.201172"/>
      <use xlink:href="#DejaVuSans-20" x="392.724609"/>
      <use xlink:href="#DejaVuSans-34" x="424.511719"/>
     </g>
    </g>
    <g id="line2d_42">
     <path d="M 66.6 113.282938 
L 76.6 113.282938 
L 86.6 113.282938 
" style="fill: none; stroke: #9467bd; stroke-width: 1.5; stroke-linecap: square"/>
    </g>
    <g id="text_24">
     <!-- Episode 5 -->
     <g transform="translate(94.6 116.782938) scale(0.1 -0.1)">
      <use xlink:href="#DejaVuSans-45"/>
      <use xlink:href="#DejaVuSans-70" x="63.183594"/>
      <use xlink:href="#DejaVuSans-69" x="126.660156"/>
      <use xlink:href="#DejaVuSans-73" x="154.443359"/>
      <use xlink:href="#DejaVuSans-6f" x="206.542969"/>
      <use xlink:href="#DejaVuSans-64" x="267.724609"/>
      <use xlink:href="#DejaVuSans-65" x="331.201172"/>
      <use xlink:href="#DejaVuSans-20" x="392.724609"/>
      <use xlink:href="#DejaVuSans-35" x="424.511719"/>
     </g>
    </g>
   </g>
  </g>
 </g>
 <defs>
  <clipPath id="p25ada6d722">
   <rect x="57.6" y="41.472" width="357.12" height="266.112"/>
  </clipPath>
 </defs>
</svg>
